/* XPM */
static char *d1dbc4271f7d4d79c565acc415701950whC8cepXi5j8FhxK[] = {
/* columns rows colors chars-per-pixel */
"64 64 125 2 ",
"   c None",
".  c black",
"X  c #161200",
"o  c #1A1500",
"O  c #1E1900",
"+  c #1D1A0B",
"@  c #1D1D1D",
"#  c #2B2401",
"$  c #393314",
"%  c #393626",
"&  c #393836",
"*  c #957C02",
"=  c #987F00",
"-  c #9E8400",
";  c #A08500",
":  c #A58A01",
">  c #AA8E03",
",  c #A48B0B",
"<  c #A98F0A",
"1  c #AC9003",
"2  c #AF950C",
"3  c #B09300",
"4  c #BB9B02",
"5  c #B0950C",
"6  c #AF9616",
"7  c #BFA004",
"8  c #C09F00",
"9  c #C1A104",
"0  c #C9A700",
"q  c #CEAB00",
"w  c #D1AE00",
"e  c #D5B100",
"r  c #DBB600",
"t  c #DFB900",
"y  c #D4B10A",
"u  c #DBB70B",
"i  c #DCB80C",
"p  c #DFBC15",
"a  c #E0BB00",
"s  c #E0BC0A",
"d  c #E7C100",
"f  c #EAC400",
"g  c #F3CB00",
"h  c #F2CC0A",
"j  c #FED400",
"k  c #FED60B",
"l  c #FFD80A",
"z  c #FCD515",
"x  c #FED816",
"c  c #C5B14C",
"v  c #DFC64B",
"b  c #DEC655",
"n  c #DFC855",
"m  c #E4CB4B",
"M  c #EDD24C",
"N  c #F2D54B",
"B  c #F9DC4C",
"V  c #E3CB59",
"C  c #EFD553",
"Z  c #F1D655",
"A  c #F7DC56",
"S  c #F7DC55",
"D  c #F5DA55",
"F  c #F8DC55",
"G  c #F8DC56",
"H  c #F8DD56",
"J  c #F9DD55",
"K  c #FADF5C",
"L  c #FADF5E",
"P  c #FFE24B",
"I  c #FFE14B",
"U  c #FCE055",
"Y  c #FDE055",
"T  c #FEE155",
"R  c #FDE056",
"E  c #FCE156",
"W  c #FCE057",
"Q  c #FCE157",
"!  c #FDE157",
"~  c #FDE156",
"^  c #FAE05C",
"/  c #FCE15F",
"(  c #FAE05C",
")  c #FCE260",
"_  c #FCE261",
"`  c #FEE362",
"'  c #FFE561",
"]  c #FDE364",
"[  c #FDE362",
"{  c #F8E06F",
"}  c #FCE470",
"|  c #FCE471",
" . c #FCE472",
".. c #FCE572",
"X. c #FCE573",
"o. c #FCE471",
"O. c #F7E37F",
"+. c #F8E37F",
"@. c #F7E380",
"#. c #F8E380",
"$. c #F8E380",
"%. c #C4C4C5",
"&. c #C4C4C6",
"*. c #C3C4C5",
"=. c #DFDDD0",
"-. c #DFDDD0",
";. c #DBDCDE",
":. c #DCDCDD",
">. c #DDDDDE",
",. c #DDDDDF",
"<. c #DDDEDF",
"1. c #DCDCDE",
"2. c #E1DECF",
"3. c #E1DED0",
"4. c #E1DED1",
"5. c #E1DFD2",
"6. c #E1DFD2",
"7. c #FCF6D9",
"8. c #FCF6D8",
"9. c #FEF8DA",
"0. c #FEF8DB",
"q. c #FCF9E9",
"w. c #FCF9EA",
"e. c #FEFBEB",
"r. c #FDFAEB",
/* pixels */
"                                                                                                                                ",
"                                                                                                                                ",
"                                                                                                                                ",
"                                                                                                                                ",
"                                                                                                                                ",
"                                                                                                                                ",
"                                                                                                                                ",
"                                                                                                                                ",
"                                                                                                                                ",
"                                                                                                                                ",
"                                                . . . . . . . . . . . . . .                                                     ",
"                                                + + O O O O o o o o o o X X                                                     ",
"                                        . . . + c v s a a r 9 4 4 4 4 4 > * X . . .                                             ",
"                                        + + + $ m P k j j j a r r r r e 0 1 # X X X                                             ",
"                                    . + c b b m z k j j j j j j j g r e e q > : > = X .                                         ",
"                                    @ % V ' ` T k j g g g g g g g f w q e e 0 9 9 > # X                                         ",
"                                . @ &.3.{ / ` T k g 3 : : : : : : : ; : w e e w 9 4 > = X .                                     ",
"                                @ & 3.9.} K Z N h d > - ; ; ; ; ; ; ; : 0 q q q 9 9 9 > # X                                     ",
"                            . @ &.3.#.} ] Z 6 , : > 0 q q q q q q q q 0 : ; ; : q w 9 4 > * X .                                 ",
"                            @ & 3.9.} K Z m < - - : y i u u u u i u e w : - - : 0 q 9 9 9 > # X                                 ",
"                        . @ &.3.+.} ] Z 6 < 0 q q y N F F F F F F N u e q q q 0 : : q w 9 4 > = X .                             ",
"                        . @ :.q.} K Z m < : y i u p M Z Z Z Z Z Z M y w r r e w : : 0 q 9 9 9 > X .                             ",
"                        . @ ;.q.} Z 6 < 0 y N S F M 6 , , , , , , , ; > g g r e w 0 : : q w 9 : X .                             ",
"                        @ & =.7.} Z , - q i S ` T N , = = - : : : : - : d g t r e q ; - q e 9 > # X                             ",
"                    . @ &.3.+.} ] Z , - q u S T x h : = = : d g g d : - : 3 g g r q - - q e 9 4 > = X .                         ",
"                    . @ :.q.} ^ Z m < : y p B B k g : = = : g j j g : = = : g j r q : : 0 q 9 9 9 > X .                         ",
"                    . @ :.q.} Z 6 < 0 y N B z k j g : = = : g j j g : = = : g j r e w 0 : : q w 9 : X .                         ",
"                    . @ :.q.} Z , - q i S T k j j g : = = : g j j g : = = : g j t r e q - ; q e 9 : X .                         ",
"                    . @ :.q.} Z , ; q u S T k j j g : = = : g j j g : = = : g j j g r q ; ; q w 9 : X .                         ",
"                    . @ :.q.} Z , ; q u S T k j j g : = = : d g g d : - : 3 g j j j r q ; ; q w 9 : X .                         ",
"                    . @ :.q.} Z , ; q u S T k j j g : = - - : : : : - : d g j j j j r q ; ; q w 9 : X .                         ",
"                    . @ :.q.} Z , ; q u S T k j j g : = - - : : : : : 3 g j j j j j r q ; ; q w 9 : X .                         ",
"                    . @ :.q.} Z , ; q i S T k j j g : = = : d g g g g g j j j j j j r q ; ; q e 9 : X .                         ",
"                    . @ :.q.} Z , ; q i S T k j j g : = = : g j j j j j j j j j j g r q ; ; q e 9 : X .                         ",
"                    . @ :.q.} Z , - q i S T k j j g : = = : g j j j j j j j j j t r e q - ; q e 9 : X .                         ",
"                    . @ :.q.} Z 6 < 0 y N B z k j g : = = : g j j j j j j j j j r e w 0 : : q w 9 : X .                         ",
"                    . @ :.q.} ^ Z m < : y p B B k g : = = : g j j j j j j j j j r q : : 0 q 9 7 9 : X .                         ",
"                    . @ &.3.@.} ] Z , - q u S T x h : = = : g j j j j j j j j g r q - - q e 9 4 > * X .                         ",
"                        @ & =.7.} C , - q i S ` T N , = = : g j j j j j j j t r e q ; - q e 9 > # X                             ",
"                        . @ ;.q.} Z 6 < 0 y N S F M 6 , , 5 h k k k j j j g r e w 0 : : q w 9 : X .                             ",
"                        . @ :.q.} ^ Z m < : y i u p M Z Z Z F T T B i r r r e w : : 0 q 9 7 9 > X .                             ",
"                        . @ *.3.O.} ] Z 6 < 0 q q y N F F F S S F N u e q q q 0 : : q w 7 4 > * X .                             ",
"                            @ & 3.9.} ^ Z m < - - : y i i i i i i u e w : - ; : 0 q 9 7 7 > # X                                 ",
"                            . @ &.3.#.} ] Z 2 : : > 0 q q q q q q q q 0 : - - : w e 9 4 > * X .                                 ",
"                                @ & 3.9.} J h g g d > - ; ; ; ; ; ; - : 0 q q w e w 9 > # X                                     ",
"                                . @ *.2.o.T x k j g 3 : : : : : : : ; : w e e w w q 1 * X .                                     ",
"                                    @ % V ' T P k j g g g g g g g f w q e e 9 9 9 1 # X                                         ",
"                                    . + c n b m z k j j j j j j j g r e e q > : : * X .                                         ",
"                                        + + + $ m P l j j j a r r r r e 0 1 # X X X                                             ",
"                                        . . . + c v i t a r 8 4 4 4 4 4 > * X . . .                                             ",
"                                                + + O O O O o o o o o o X X                                                     ",
"                                                . . . . . . . . . . . . . .                                                     ",
"                                                                                                                                ",
"                                                                                                                                ",
"                                                                                                                                ",
"                                                                                                                                ",
"                                                                                                                                ",
"                                                                                                                                ",
"                                                                                                                                ",
"                                                                                                                                ",
"                                                                                                                                ",
"                                                                                                                                ",
"                                                                                                                                ",
"                                                                                                                                "
};
