/* XPM */
static char *_9bafe59cddc4af2d5a53ef6bcd6b0fa7OXxUZcmUVVYcdPX[] = {
/* columns rows colors chars-per-pixel */
"32 32 221 2 ",
"   c black",
".  c black",
"X  c black",
"o  c black",
"O  c black",
"+  c #090804",
"@  c #221E0C",
"#  c #231D02",
"$  c #221C00",
"%  c #1E1900",
"&  c #1D1800",
"*  c #1D1800",
"=  c #191500",
"-  c #070500",
";  c black",
":  c #0B0900",
">  c #201C0C",
",  c #3C3516",
"<  c #C9B039",
"1  c #9B8102",
"2  c #2D2601",
"3  c #181401",
"4  c #080700",
"5  c #03040A",
"6  c #3D3A2A",
"7  c #2E2701",
"8  c #030200",
"9  c #030405",
"0  c gray24",
"q  c None",
"w  c #998003",
"e  c #2E2601",
"r  c #0B0B0C",
"t  c #3D3D3B",
"y  c #CAC5AB",
"u  c #987F03",
"i  c #202021",
"p  c #09090A",
"a  c #3B3B3A",
"s  c #2C2501",
"d  c #070600",
"f  c #212223",
"g  c #C7C4B6",
"h  c #967E03",
"j  c #191501",
"k  c #222324",
"l  c #1A1601",
"z  c #222224",
"x  c #1A1601",
"c  c #1A1501",
"v  c #967D03",
"b  c #1F2021",
"n  c #CAC5AA",
"m  c #9B8103",
"M  c #03050A",
"N  c #2F2701",
"B  c #020200",
"V  c #3B3516",
"C  c #C8B039",
"Z  c #2D2501",
"A  c #171401",
"S  c #231E02",
"D  c #221D00",
"F  c #E0BC09",
"G  c #DBB700",
"H  c #C4A300",
"J  c #C09F00",
"K  c #BA9B00",
"L  c #C7B24F",
"P  c #E2C94C",
"I  c #FBD414",
"U  c #F6CD01",
"Y  c #F3CB00",
"T  c #EFC800",
"R  c #EBC400",
"E  c #D5B100",
"W  c #CFAC01",
"Q  c #AE9103",
"!  c #957D03",
"~  c #FAE26E",
"^  c #F4D74B",
"/  c #E9C40A",
"(  c #B59700",
")  c #AC8F00",
"_  c #AD9000",
"`  c #CAA700",
"'  c #CCAA01",
"]  c #C1A103",
"[  c #FAE47D",
"{  c #E9CF4F",
"}  c #B49912",
"|  c #B09302",
" . c #CEAD0B",
".. c #D3B10C",
"X. c #D3B10B",
"o. c #CAA801",
"O. c #C6A501",
"+. c #C5C3B6",
"@. c #FAE57F",
"#. c #E9CF4E",
"$. c #B99D14",
"%. c #CDAC0A",
"&. c #D6B413",
"*. c #E9CC42",
"=. c #ECD049",
"-. c #EBD049",
";. c #E7CB40",
":. c #D3B109",
">. c #D3AF00",
",. c #CAA800",
"<. c #B19300",
"1. c #E0DBC0",
"2. c #F3DB68",
"3. c #F3D64A",
"4. c #EED144",
"5. c #AF9514",
"6. c #A68D0C",
"7. c #B0950C",
"8. c #AF940B",
"9. c #AC9001",
"0. c #E2BD00",
"q. c #DDB700",
"w. c #CCA901",
"e. c #AC8F03",
"r. c #F8E47E",
"t. c #E7CD4D",
"y. c #B0940A",
"u. c #D7B613",
"i. c #FADB44",
"p. c #F2CD14",
"a. c #A48900",
"s. c #A28700",
"d. c #E7C100",
"f. c #AE9100",
"g. c #ECC500",
"h. c #D4B000",
"j. c #C7A500",
"k. c #C0A003",
"l. c #DCD9C9",
"z. c #F3DC6A",
"x. c #F3D541",
"c. c #FED714",
"v. c #F2CA00",
"b. c #A58A00",
"n. c #F4CC00",
"m. c #A48A00",
"M. c #EEC700",
"N. c #DFB900",
"B. c #AC9000",
"V. c #CBA901",
"C. c #A98D03",
"Z. c #DBD8C8",
"A. c #F1DA69",
"S. c #AB9109",
"D. c #D3B00C",
"F. c #F8DA49",
"G. c #FFD70C",
"H. c #A38800",
"J. c #F7CE00",
"K. c #A78C00",
"L. c #CDAA00",
"P. c #A88C03",
"I. c #AC910A",
"U. c #D2B00C",
"Y. c #9B8200",
"T. c #AF9200",
"R. c #B09300",
"E. c #EAC400",
"W. c #FED400",
"Q. c #FBD100",
"!. c #A88C00",
"~. c #CDAA01",
"^. c #F8DB49",
"/. c #F6CE00",
"(. c #FED814",
"). c #FFD600",
"_. c #FFD500",
"`. c #DEB900",
"'. c #A88D03",
"]. c #B0950A",
"[. c #F6CD00",
"{. c #D3B000",
"}. c #C7A600",
"|. c #E0DBBF",
" X c #F3DC68",
".X c #F3D74A",
"XX c #EED244",
"oX c #AE9514",
"OX c #AF940C",
"+X c #F4CD0C",
"@X c #FFD60B",
"#X c #FBD101",
"$X c #DEB800",
"%X c #AB8F03",
"&X c #F9E57F",
"*X c #B99E14",
"=X c #CDAC0B",
"-X c #D6B514",
";X c #E8CC42",
":X c #EDD249",
">X c #F7DA49",
",X c #F5D640",
"<X c #DEBA09",
"1X c #FAE57D",
"2X c #E9CF4D",
"3X c #B49809",
"4X c #D3B20C",
"5X c #D2B10C",
"6X c #D2B00B",
"7X c #C8A700",
"8X c #FAE165",
"9X c #F5D014",
"0X c #E9C300",
"qX c #C9A700",
"wX c #CEAC00",
"eX c #C7B24D",
"rX c #E2C843",
"tX c #FBD412",
"yX c #D4B100",
"uX c #977E03",
"iX c white",
/* pixels */
"                                                                ",
"                                                                ",
"                                                                ",
"                                                                ",
"                      . X o o o o o X .                         ",
"                  . O + @ # $ % & * = - O .                     ",
"                ; : > , < F G H J K 1 2 3 4 ;                   ",
"              ; 5 6 L P I U Y T R E W Q ! 7 8 ;                 ",
"            ; 9 0 q ~ ^ / ( ) _ ) _ ` ' ] w e 8 ;               ",
"          . r t y [ { } |  .....X.o.) ) O.] u 7 4 .             ",
"          O i +.@.#.$.%.&.*.=.-.;.:.>.,.<.O.] ! 3 O             ",
"        . p a 1.2.} %.3.4.5.6.7.8.9.0.q.` ) w.e.s d .           ",
"        X f g r.t.y.u.i.p.a.s.d.d.a.f.g.h.) j.k.h j X           ",
"        o k l.z.}  .x.c.v.a.b.n.n.m.a.M.N.,.B.V.C.l o           ",
"        o z Z.A.S.D.F.G.v.b.H.d.d.a.f.Y J.>.K.L.P.x o           ",
"        o z Z.A.I.U.F.G.v.b.Y.T.R.R.E.W.Q.>.!.~.P.x o           ",
"        o z Z.A.S...^.G.v.b.H.d.v.n.W.W./.>.K.L.P.c o           ",
"        o k l.z.}  .x.(.v.m.b.Y )._._.Q.`.,.B.V.'.l o           ",
"        X f g r.t.].u.i.p.a.a.v._._.W.[.{.) }.k.v j X           ",
"        . p a |. X} %..XXXoXOX+X@X#X[.$X` ) w.%Xs d .           ",
"          O b +.&X#.*X=X-X;X:X>X,X<X{.` <.O.k.! 3 O             ",
"          . r t y 1X2X3XR. .4X5X6Xo.) B.7X] u 7 4 .             ",
"            ; 9 0 n 8X9X0X( ) _ ) _ qXwXW m e 8 ;               ",
"              ; M 6 eXrXtXU Y T R yXW Q uXN B ;                 ",
"                ; : > V C F G H J K 1 Z A 4 ;                   ",
"                  . O + @ S D % & * = - O .                     ",
"                      . X o o o o o X .                         ",
"                                                                ",
"                                                                ",
"                                                                ",
"                                                                ",
"                                                                "
};
