/* XPM */
static char *_7bae6cd072d4d658ffe509e5b6e66ecXHWK15y1gK3GdlVX[] = {
/* columns rows colors chars-per-pixel */
"64 64 253 2 ",
"   c None",
".  c #010101",
"X  c #020202",
"o  c gray3",
"O  c #090909",
"+  c gray4",
"@  c #0B0B0B",
"#  c #0C0C0C",
"$  c #0E0E0E",
"%  c gray6",
"&  c #1D0F05",
"*  c #101010",
"=  c #111111",
"-  c gray7",
";  c gray8",
":  c #151515",
">  c gray9",
",  c #1F1915",
"<  c #181818",
"1  c #191919",
"2  c gray10",
"3  c #1B1B1B",
"4  c gray11",
"5  c #1E1E1E",
"6  c gray12",
"7  c #25150A",
"8  c #311A09",
"9  c #201813",
"0  c #251B13",
"q  c #251B14",
"w  c #271D16",
"e  c #2A1E15",
"r  c #281E17",
"t  c #3E210D",
"y  c #3E220D",
"u  c #3F220D",
"i  c #3F220E",
"p  c #2B211A",
"a  c #2D231B",
"s  c #362010",
"d  c #362314",
"f  c #3B2516",
"g  c #30261E",
"h  c #3C291A",
"j  c #392A1E",
"k  c #3F2B1D",
"l  c gray13",
"z  c #232323",
"x  c gray15",
"c  c #272727",
"v  c #282726",
"b  c #2A2826",
"n  c #2C2825",
"m  c #272929",
"M  c #282828",
"N  c #282929",
"B  c gray16",
"V  c #292A2B",
"C  c #2A2A2A",
"Z  c gray17",
"A  c #2C2C2C",
"S  c #2D2D2D",
"D  c #2C2E2E",
"F  c #2D2E2E",
"G  c gray18",
"H  c #2F2F2F",
"J  c #322720",
"K  c #342A23",
"L  c #352B23",
"P  c #322B26",
"I  c #362B24",
"U  c #372D26",
"Y  c #392E27",
"T  c #392F27",
"R  c #302C2A",
"E  c #392F28",
"W  c #3A2F28",
"Q  c #39312A",
"!  c #2F2F30",
"~  c #2F3030",
"^  c #2E3031",
"/  c #313131",
"(  c #323130",
")  c #303132",
"_  c #313132",
"`  c #313233",
"'  c #323232",
"]  c #353535",
"[  c #3D3834",
"{  c #363738",
"}  c #373738",
"|  c gray22",
" . c #393939",
".. c #3A3A3A",
"X. c #3B3C3C",
"o. c #3B3C3D",
"O. c #3C3C3C",
"+. c #3F3F3F",
"@. c #41230F",
"#. c #42240F",
"$. c #4C250A",
"%. c #4C260B",
"&. c #4C270C",
"*. c #4D280D",
"=. c #4C2A0F",
"-. c #422510",
";. c #432611",
":. c #432612",
">. c #432712",
",. c #442712",
"<. c #442713",
"1. c #452713",
"2. c #452813",
"3. c #482B12",
"4. c #4F2B10",
"5. c #4B2B14",
"6. c #4C2C14",
"7. c #412B18",
"8. c #402B1A",
"9. c #442A18",
"0. c #462D19",
"q. c #402C1D",
"w. c #502D12",
"e. c #502F14",
"r. c #513016",
"t. c #573316",
"y. c #5D3111",
"u. c #5C3213",
"i. c #5F3312",
"p. c #583417",
"a. c #533318",
"s. c #55371C",
"d. c #61310F",
"f. c #72380F",
"g. c #74390F",
"h. c #643412",
"j. c #603615",
"k. c #613717",
"l. c #6C3711",
"z. c #6D3913",
"x. c #6B3B16",
"c. c #603919",
"v. c #693B18",
"b. c #743B12",
"n. c #763C11",
"m. c #753D14",
"M. c #783D13",
"N. c #7F3E11",
"B. c #413024",
"V. c #4D3926",
"C. c #593C23",
"Z. c #413934",
"A. c #7D4115",
"S. c #72431E",
"D. c #44403D",
"F. c #634225",
"G. c #774923",
"H. c #414242",
"J. c gray26",
"K. c #424343",
"L. c #424344",
"P. c #444444",
"I. c gray27",
"U. c #464646",
"Y. c #484644",
"T. c #464748",
"R. c #4B4B4B",
"E. c #4C4D4D",
"W. c gray30",
"Q. c #4C4D4E",
"!. c #4F5051",
"~. c #535353",
"^. c #535454",
"/. c #535455",
"(. c gray33",
"). c #555555",
"_. c #555657",
"`. c #565656",
"'. c #575858",
"]. c #575859",
"[. c #585859",
"{. c #585959",
"}. c #58595A",
"|. c #595A5A",
" X c #595A5B",
".X c #5A5A5A",
"XX c gray36",
"oX c #5C5D5E",
"OX c #5D5D5E",
"+X c #5E5E5F",
"@X c #5F6060",
"#X c #626363",
"$X c #686969",
"%X c gray42",
"&X c #813F10",
"*X c #814011",
"=X c #844111",
"-X c #894412",
";X c #8B4412",
":X c #8B4512",
">X c SaddleBrown",
",X c #8C4512",
"<X c #8D4614",
"1X c #8C4715",
"2X c #8D4715",
"3X c #8D4815",
"4X c #8D4917",
"5X c #8E4816",
"6X c #8F4916",
"7X c #8E4917",
"8X c #8F4A17",
"9X c #834719",
"0X c #82471A",
"qX c #8E4F1E",
"wX c #904F1E",
"eX c #914F1E",
"rX c #91501E",
"tX c #92501E",
"yX c #93511E",
"uX c #854E21",
"iX c #844E22",
"pX c #854E22",
"aX c #854F22",
"sX c #854F23",
"dX c #864F22",
"fX c #874F22",
"gX c #864F23",
"hX c #874F23",
"jX c #8B5224",
"kX c #8D5425",
"lX c #8C5629",
"zX c #905120",
"xX c #915120",
"cX c #935220",
"vX c #935221",
"bX c #925322",
"nX c #935322",
"mX c #945321",
"MX c #915423",
"NX c #955421",
"BX c #945422",
"VX c #945624",
"CX c #955725",
"ZX c #955928",
"AX c #965928",
"SX c #975A28",
"DX c #965D2C",
"FX c #985D2C",
"GX c #985D2D",
"HX c #995E2C",
"JX c #985E2D",
"KX c #995E2D",
"LX c #9A5F2D",
/* pixels */
"                                                                                                                                ",
"                                                                                                                                ",
"                                                                                                                                ",
"                                                                                                                                ",
"                                                                                                                                ",
"                                                                                                                                ",
"                                                                                                                                ",
"                                                                                                                                ",
"                                                                                                                                ",
"                                                                                                                                ",
"                                                                                                                                ",
"                                                                                                                                ",
"                                                        o c  ./ I.A  .1 X                                                       ",
"                                                    6  . .R.+XL./ !.+XO. .]                                                     ",
"                                                    I.%X+Xv j f d q.r  .%X+XA                                                   ",
"                                                  O.H.Y.B.u.lX-XMXbXf.C.Q / _. .                                                ",
"                                                A #XD.F.9X4XFX-XVXbX<XDXn.9.}.I.X                                               ",
"                                                O.@Xk kXtX4XFX-XVXbX<XFX4Xl.[ O.1                                               ",
"                                              6 ] b d.AXeX4XFX-XVXbX<XFX<XqXV.~.H.                                              ",
"                                              A ].s &XAXeX4XFX-XVXbX<XFX<XbXG.Z.}.-                                             ",
"                                              Z !.,.-XAXeX4XFX-XVXbX<XFX<XbXhXK !.-                                             ",
"                                              ; m t -XAXeX4XFX-XVXbX<XFX<XbXhX0 Z o                                             ",
"                                              Z /.>.-XAXeX4XFX-XVXbX<XFX4XNXhXU /.-                                             ",
"                                              Z _.,.-XAXeX4XFX-XVXbX<XFXb.j.p.P _.-                                             ",
"                                              ; Z t -XAXeX4XFX-XVXbX<XFX5.~ ~ l Z o                                             ",
"                                              c Q.>.-XAXeX4XFX-XVXbX<XFXh.0.8.n Q.-                                             ",
"                                              A }.,.-XAXeX4XFX-XVXbX<XFX<XbXhXY }.-                                             ",
"                                              1 / t -XAXtX4XFX-XVXbX<XFX<XbXhXr / o                                             ",
"                                              l L.>.=XS.x.A.FX-XVXbX<XFX<XbXhXg H.%                                             ",
"                                              A }.2.N.8 & z.FX-XVXbX<XFX<XbXhXW }.-                                             ",
"                                              6 o.#.g.s.j.u.FX-XVXbX<XFX<XbXhXa o.%                                             ",
"                                              6 { @.*Xt.=.m.FX-XVXbX<XFX<XbXhXp { o                                             ",
"                                              A }.,.,XjX9X4XFX-XVXbX<XFX<XbXhXW }.-                                             ",
"                                              l T.>.-XAXtX4XFX-XVXbX<XFX<XbXhXJ T.%                                             ",
"                                              ; A t -XAXeX4XFX-XVXbX<XFX<XbXhXw A o                                             ",
"                                              A ].,.-XAXeX4XFX-XVXbX<XFX<XbXhXY ].-                                             ",
"                                              Z !.>.-XAXeX4XFX-XVXbX<XFX4XNXhXI !.-                                             ",
"                                              ; m t -XAXeX4XFX-XVXbX<XFXM.v.c.9 Z o                                             ",
"                                              Z /.>.-XAXeX4XFX-XVXbX<XFX6.A A / _.-                                             ",
"                                              Z _.,.-XAXeX4XFX-XVXbX<XFXu.8.h R _.-                                             ",
"                                              ; Z t -XAXeX4XFX-XVXbX<XFX<XbXhXq Z o                                             ",
"                                              c Q.>.-XAXeX4XFX-XVXbX<XFX<XbXhXK Q.-                                             ",
"                                              A }.,.,XAXtX4XFX<XVXNX<XFX4XmXhXW }.-                                             ",
"                                              1 ~ 7 %.r.4.=.a.%.e.w.%.a.&.w.3., ! o                                             ",
"                                                                                                                                ",
"                                                                                                                                ",
"                                                                                                                                ",
"                                                                                                                                ",
"                                                                                                                                ",
"                                                                                                                                ",
"                                                                                                                                ",
"                                                                                                                                ",
"                                                                                                                                ",
"                                                                                                                                ",
"                                                                                                                                ",
"                                                                                                                                ",
"                                                                                                                                ",
"                                                                                                                                ",
"                                                                                                                                ",
"                                                                                                                                ",
"                                                                                                                                ",
"                                                                                                                                ",
"                                                                                                                                ",
"                                                                                                                                "
};
