/* XPM */
static char *c08167a773fd41fc86c50a3653a230077ANoK9vaqxDIZrt4[] = {
/* columns rows colors chars-per-pixel */
"64 64 236 2 ",
"   c None",
".  c #291D2D",
"X  c #261C2D",
"o  c #2D1734",
"O  c #2C1933",
"+  c #2A1C3A",
"@  c #261C38",
"#  c #3B1935",
"$  c #341B38",
"%  c #36232A",
"&  c #39232B",
"*  c #372227",
"=  c #2B213B",
"-  c #382539",
";  c #531A3C",
":  c #671B3E",
">  c #532E31",
",  c #742B3D",
"<  c #76273F",
"1  c #7F373B",
"2  c #65213F",
"3  c #764427",
"4  c #291E40",
"5  c #282348",
"6  c #33354F",
"7  c #781A44",
"8  c #671A46",
"9  c #782D42",
"0  c #7D3543",
"q  c #6E2740",
"w  c #582346",
"e  c #37507D",
"r  c #555257",
"t  c #AA1F3F",
"y  c #86383C",
"u  c #AF263B",
"i  c #B2343F",
"p  c #AE363F",
"a  c #8E5228",
"s  c #B85635",
"d  c #A76C34",
"f  c #A9641B",
"g  c #C56D1C",
"h  c #C96A1A",
"j  c #D17415",
"k  c #ED7F0F",
"l  c #D64D3D",
"z  c #C45435",
"x  c #C75439",
"c  c #DC533B",
"v  c #DA5A39",
"b  c #C7483A",
"n  c #E35B35",
"m  c #E45B3C",
"M  c #E4573C",
"N  c #C66923",
"B  c #D36234",
"V  c #DD6738",
"C  c #CB7029",
"Z  c #EA6C2E",
"A  c #E66E2F",
"S  c #E57D2C",
"D  c #EE7C2A",
"F  c #EA752B",
"G  c #F17A2E",
"H  c #F2752C",
"J  c #EC6A32",
"K  c #E1633C",
"L  c #E86837",
"P  c #ED7535",
"I  c #ED7538",
"U  c #F27835",
"Y  c #F06937",
"T  c #861C46",
"R  c #971C47",
"E  c #AB1C46",
"W  c #AB1C49",
"Q  c #AC1848",
"!  c #B01C4D",
"~  c #842144",
"^  c #8C2344",
"/  c #982346",
"(  c #813642",
")  c #AA2444",
"_  c #AC2B43",
"`  c #AB234A",
"'  c #A62548",
"]  c #B82B4B",
"[  c #AE3441",
"{  c #A73547",
"}  c #B33441",
"|  c #B83746",
" . c #AF2650",
".. c #CA364C",
"X. c #C93B49",
"o. c #D33E4E",
"O. c #D13F44",
"+. c #D23D50",
"@. c #C4304D",
"#. c #A67C4D",
"$. c #B24247",
"%. c #CC4343",
"&. c #C84546",
"*. c #D64E41",
"=. c #D94749",
"-. c #D65041",
";. c #DE554B",
":. c #DE5742",
">. c #E34D47",
",. c #E55446",
"<. c #E35B44",
"1. c #E4534A",
"2. c #E95948",
"3. c #E85E51",
"4. c #DE6247",
"5. c #EB6444",
"6. c #E96946",
"7. c #ED7247",
"8. c #E96852",
"9. c #EE7C57",
"0. c #EE7D58",
"q. c #F07D58",
"w. c #D27960",
"e. c #EE830D",
"r. c #EE890C",
"t. c #FB9D01",
"y. c #F89506",
"u. c #F78B1F",
"i. c #F98D1F",
"p. c #FB9716",
"a. c #F79A14",
"s. c #FA9A16",
"d. c #F5921D",
"f. c #FB941C",
"g. c #FB991A",
"h. c #F5991C",
"j. c #F29210",
"k. c #FCA202",
"l. c #FBAC04",
"z. c #FAAD0A",
"x. c #F7A608",
"c. c #F7B50D",
"v. c #F9B708",
"b. c #ECA41B",
"n. c #FCA31B",
"m. c #F5A716",
"M. c #F6B618",
"N. c #E98527",
"B. c #F58525",
"V. c #F58A24",
"C. c #F98D21",
"Z. c #F5852A",
"A. c #F98A2B",
"S. c #F49523",
"D. c #FA9223",
"F. c #F69B2C",
"G. c #F69728",
"H. c #F18C31",
"J. c #FAA524",
"K. c #F1AB34",
"L. c #FBCB02",
"P. c #F8C908",
"I. c #FBD201",
"U. c #FADC02",
"Y. c #F7D30B",
"T. c #F8D20B",
"R. c #F7DB06",
"E. c #F8D619",
"W. c #F6CB15",
"Q. c #F7E305",
"!. c #FAE303",
"~. c #F6E905",
"^. c #FBEC05",
"/. c #F7E40A",
"(. c #F8E909",
"). c #F9F503",
"_. c #FBF40A",
"`. c #FBF90D",
"'. c #F9F702",
"]. c #F8E919",
"[. c #FAFA13",
"{. c #FAF61E",
"}. c #FAF91B",
"|. c #FBF612",
" X c #F9DE21",
".X c #F9EA27",
"XX c #F9F523",
"oX c #F8F42E",
"OX c #FAFA2C",
"+X c #F9F826",
"@X c #F8F631",
"#X c #FAFA32",
"$X c #F7F935",
"%X c #92835E",
"&X c #FBAA43",
"*X c #F2B557",
"=X c #E9B640",
"-X c #ED9E7E",
";X c #F0B264",
":X c #EBA27B",
">X c #EFAC6F",
",X c #D7A858",
"<X c #F9C65C",
"1X c #FAC957",
"2X c #F1DC5B",
"3X c #F4D55C",
"4X c #F0DA57",
"5X c #F9FA46",
"6X c #F3E959",
"7X c #F9C663",
"8X c #F2DD62",
"9X c #F8D565",
"0X c #F5CF76",
"qX c #F6ED65",
"wX c #395CA7",
"eX c #4576C6",
"rX c #6C869B",
"tX c #5E97DC",
"yX c #7EC4D3",
"uX c #AEAEAB",
"iX c #AEB0AD",
"pX c #AEB2B3",
"aX c #B8B597",
"sX c #EC9E83",
"dX c #EAA281",
"fX c #FBF998",
"gX c #85BACA",
"hX c #98D7EB",
"jX c #F7F6CA",
"kX c #F7F9D3",
"lX c #F8F6D2",
"zX c #F7EBCF",
"xX c #DBFDFB",
"cX c #ECE5EB",
"vX c #EEE9ED",
"bX c #F8FDFD",
/* pixels */
"                                                                                                                                ",
"                                                                                                                                ",
"                                      $X#X#X#X#XOXOXOXOX#XOXOXOXOXOXOXOX#XOXOX#X#X#XOX#X#X5X                                    ",
"                          5XOX+X+XOX+XXXXXXXXXXX{.{.{.{.{.{.{.{.{.{.{.{.{.{.{.{.XXXX{.{.{.+X+XOXOX5X5X                          ",
"                      5X#X+XXX.X].].].M.c.c.c.c.c.c.c.c.c.c.c.c.c.c.c.c.c.c.c.c.c.c.c.c.c.W.].]..X+XOXOX$X                      ",
"                kXfX5X+X}.E.v.z.x.x.t.B s z z z x x z x x x x x x x x x z z z z z z z z s C a.x.l.c.E.XX+X#X$X                  ",
"              jXqX#XXXE.c.k.y.t.j a 3 > # # # # # # # # # # # # # # # # # # # # # # # # # > 3 d K.J.x.c.E.XXOX$X                ",
"            fX5X+X].P.y.y.g a a > 8 7 7 7 7 7 T ~ ~ T T ~ ~ ~ ~ ~ ~ ~ ~ ~ ~ ~ ~ ~ T 7 7 7 7 7 w r %X,XK.m.c.E.+XOX#X            ",
"          5X#XXXE.z.y.e.a - ; : T R W  .] ] ] ......................................] ] ] ` ' R 7 w w %X,XM.l.T.{.}.XX          ",
"        5XOXXXW.t.y.j 3 $ 8 T R ) ] X.*.l -.-.*.*.*.*.-.-.-.-.-.-.-.-.-.*.*.*.*.*.*.-.-.*.%...] ` R T ; r ,XK.z.T.}.}.}.        ",
"        $XXX}.c.r.j > + 8 / ' | %.K N.G.g.g.g.g.S.S.S.S.S.S.S.S.S.S.S.S.S.S.h.h.h.g.g.g.g.D.P :.+.] ` R : r aX=Xc.].}.}.        ",
"      $XXX}.}.m.j > O 7 /  .X.v D f.g.n.g.d.S V &.&.| | } i } } } i i } } | &.%.l A N.S.g.g.g.f.P ;... .R ; 6 aX1X/.}.}.        ",
"      oX}.}.}.m.j & O / ] %.L d.g.g.g.S x {  . .` ! | B B B B B v B v B B x _ ) `  . .| B N.g.g.g.V.m %.] : @ iX3X/.|.}.        ",
"    @X}.[.(.T.j.h & O { o.A h.g.g.V.x ' ' } l v N.V.b././././././././././.W.b.b.N.V l X.] } B V.g.g.d.K =.< @ iX2X/.|.[.        ",
"    oX}.[.Y.k.r.h & O { L h.g.S.V } ` i z N.M.W.(.^.).).).).).).).).).).).).).)./.Y.m.I c | } b H.n.g.d.:.9 @ uX2X/.|.|.        ",
"    OX}.[.Y.k.r.h & + [ D g.n.S ` ` b S M./.).).).).).).).).).).).).).).).).).).).)._.W.F.S v l >XJ.g.p.P 9 + uX2X/._.|.        ",
"    +X[.[.Y.k.r.h & O [ D n.n.S ' &.N.W.).).).).).).).).).).).).).).).).).).).).).).).)./.M.B.D ;XF.g.g.G 0 @ uX2X(._.`.        ",
"    +X[.[.Y.k.r.h & O p D n.n.S ' %.b.).).).).).).).).).).).).).).'.'.'.).).).).).).).).).!.z.a.;XF.f.f.P 0 @ uX2X(._.`.        ",
"    +X[.[.Y.k.r.h & O p D n.n.S ' l b.).).).).).).).).).).).).).'.).).).).).).).).).).).).!.z.p.;XF.f.D.P 1 @ uX2X~._.`.        ",
"    +X[.[.Y.k.r.g & O p D n.n.S ' c b.).).).).).).).).).).).).).).).).).).).).).).).).).).!.z.a.;XF.S.D.P 1 X uX8X(._._.        ",
"    +X[.`.Y.k.r.g * o } D n.n.S ' c b.).).).).).).).).).).).).).).).).'.).).).).).).).).).!.l.a.*XF.S.S.I 1 X uX8X~._._.        ",
"    OX[.`.Y.k.r.g * O } D n.J.S ) c b.).).).).).).).).).).).).).).).).).).).).).).).).).).!.z.a.*XF.S.S.P 1 X uX8X~._._.        ",
"    +X[.`.Y.k.r.g % O i D n.J.S u c b.).).).).).).).).).).).).).).).).).).).).).).).).).).!.z.a.*XF.S.S.P 1 . uX8X~._._.        ",
"    +X[.`.Y.k.r.g * O i D n.J.S u c b.).).).).).).).).).).).).).).).).).).).).).).).).).).!.z.a.*XF.S.S.I 1 . uX8X~._._.        ",
"    oX[.`.Y.k.r.g * o } D n.J.S u M b.).).).).).).).).).).).).).).).).).).).).).).).).).).!.z.a.*XF.S.S.P 1 . uX8X~._._.        ",
"    oX[.`.Y.k.r.g * O } D n.J.S u M h.!.^.).).).).).).).).).).).).).).).).).).).).).).).!.I.z.a.*XF.S.S.P 1 . uX8X~._._.        ",
"    +X[.`.Y.k.r.g * O } D n.J.S u c d.I.U.!.^.).).).).).).).).).).'.'.'.).).).).).^.^.U.I.L.z.a.;XF.D.D.P y . uX8X~._._.        ",
"     X[.`.Y.k.r.g * O i D n.n.S _ c d.I.I.I.I.U.!.!.!.!.!.!.!.!.!.!.!.!.!.!.!.!.U.U.I.I.L.L.l.a.;XF.D.D.I 1 . uX8X~._.`.        ",
"     X[.`.Y.k.r.g * O p D g.n.S _ c d.L.L.L.L.I.I.I.I.I.I.I.I.I.I.I.I.I.I.I.I.I.I.I.I.I.I.L.z.a.;XF.D.D.I 1 O uX2X~._._.        ",
"     X[.`.Y.k.r.g * O p D g.g.S _ l V.L.L.I.I.I.I.I.I.I.I.I.I.I.I.I.I.I.I.I.I.I.I.I.I.I.I.P.l.a.;XF.D.D.P 0 O uX2X~._._.        ",
"     X[.`.Y.k.r.g & O [ H g.g.S ' *.B.v.L.L.L.L.L.L.L.L.L.L.L.L.L.L.L.L.L.L.L.L.L.L.L.L.v.v.k.p.>XF.D.D.P 0 @ uX2X~._._.        ",
"     X[.`.T.t.r.g & O [ H f.g.S } L d.v.v.v.l.l.l.l.l.l.l.l.l.l.l.l.l.l.l.l.l.l.l.l.l.v.l.l.k.m.;XG.C.C.P 0 @ uX2X~._.`.        ",
"     X[.`.T.t.r.g & O p F f.D.H.,X7X7X7X7X7X7X7X7X7X7X7X<X<X<X<X<X<X<X<X<X7X7X7X7X<X<X1X1X1X<X9X0XG.C.C.P 0 @ uX2X~._._.        ",
"     X[.`.Y.t.r.g & O [ F D.C.D.F.K.&X&X&X&X&X&X&X&X&X&X&X&X&X&X&X&X&X&X&X&X&X&X&X&X&XK.#.#.#.#.d N.C.i.U ( + uX2X~._._.        ",
"     X`.`.Y.t.r.g & O [ Z D.D.C.D.i.i.i.i.f.f.f.f.f.D.D.D.D.D.f.f.f.f.f.f.f.f.f.f.u.C 3 6 rXpXrX6 > d N.U ( + uX2X~._._.        ",
"     X`.`.T.t.r.g & O [ Z D.C.C.C.i.i.i.i.f.f.f.f.f.D.D.f.f.f.f.f.f.f.f.f.f.f.f.f.C - e pXbXbXxXyXe = s U y 4 uX2X~._._.        ",
"     X`.`.Y.t.r.g * O [ Z C.C.C.C.i.C.B.B.B.B.B.Z.B.Z.Z.Z.Z.Z.Z.Z.Z.Z.Z.Z.B.B.V.A.C 5 gXxXbXbXxXhXtX5 a P y 4 uX2X~._._.        ",
"     X`.`.Y.t.r.g & O [ Z C.C.C.C.F l %.%.%.%.%.%.%.%.%.%.%.%.%.%.%.%.%.%.%.%.%.%.{ 5 rXhXhXhXhXtXwX@ y *.( = iX2X(._._.        ",
"     X`.`.Y.t.r.g & O } J C.C.Z.v ' R ' ) ) ) ) ) E E E W W W E E W W W W ` ` ` ' / ; 4 e eXeXwXwX5 $ 7 ] 9 = uX2X/._._.        ",
"     X`.`.Y.t.r.g & o [ J C.A.P ' R _ X.c n n n n n n n n n n n n n n n v v v v v v x 0 $ 5 6 5 + ; 7 R ] 9 = uX2X/._._.        ",
"     X`.`.Y.t.r.g % O [ J A.A.A ' / b J V.f.f.f.f.f.f.f.f.f.f.f.f.f.f.f.f.f.f.f.f.f.f.L $.^ ; ; 7 T R _ X.9 = uX2X/._._.        ",
"     X.`..T.k.r.g * O _ J A.A.A ' | V f.g.g.p.p.p.p.p.p.p.p.p.g.g.g.g.g.g.g.p.f.g.f.g.f.Z.v | / R ' | v :.9 = iX2X/._._.        ",
"     X`.`.T.k.r.g % O _ J Z.A.L ) X.A g.g.p.p.p.p.p.p.g.g.g.f.g.g.g.g.g.p.p.p.p.g.g.g.g.g.C.:.&.&.=.M H M 9 + iX4XQ._._.        ",
"     X`.`.T.t.r.N * O _ L Z.A.L ' X.A f.p.f.p.f.f.p.p.g.g.g.g.g.g.g.g.g.g.g.g.p.g.g.f.g.g.d.5.<.&X7.Y P M 9 @ uX2XQ._._.        ",
"     X`.`.Y.t.r.N * O _ L Z.Z.K ) O.Z f.p.f.f.f.f.f.f.f.f.f.f.f.f.g.g.g.g.g.g.g.g.g.g.g.g.d.5.4.dX7.Y Y <.9 @ uX2XQ.^.).        ",
"     X`._.Y.t.r.g * o _ L Z.Z.K ) O.Z f.f.f.f.f.f.f.f.f.f.f.f.f.f.f.g.g.g.g.g.g.g.g.g.g.g.d.K 4.dX7.Y Y <.9 @ uX2XQ.^.^.        ",
"     X`._.T.t.r.g * o _ L Z.H.K t O.Z f.f.f.f.f.f.f.f.f.f.f.f.f.f.f.f.f.f.f.f.f.f.f.f.f.g.u.5.4.dX7.5.L <.9 O uX8XQ.^.^.        ",
"     X`._.T.t.r.g * o _ m U U K t O.Z f.f.f.f.f.f.f.f.f.f.f.f.f.f.f.f.f.f.f.f.f.f.f.f.f.g.u.4.4.:X7.5.5.;.9 O uX8XQ.^.^.        ",
"     X`._.P.t.r.g * o _ m U U <.E %.Z f.f.f.f.f.f.f.f.f.f.f.f.i.f.f.f.f.f.f.f.f.f.f.f.f.f.C.4.4.:X7.5.5.;., . uX8XQ.^.^.        ",
"     X`.).P.t.r.g * o _ M I I v E O.Z f.f.f.f.f.f.f.f.f.f.f.f.i.f.f.f.f.f.f.f.f.f.f.f.f.f.V.V 4.:X7.5.5.;., . uX8XQ.^.^.        ",
"     X_.).P.t.r.g * o _ M I I :.E O.Z i.i.i.i.i.i.u.i.u.u.u.u.u.i.i.i.i.C.i.i.i.i.i.i.D.D.V.K 4.:X7.5.5.;., . uX8XQ.^.^.        ",
"     X_.).P.t.r.g % o _ M I 7.:.E %.Z C.i.i.i.i.C.u.u.u.u.u.u.u.u.i.i.C.C.C.i.i.i.i.C.C.D.V.K 4.:X8.5.5.;., . uX8X!.^.^.        ",
"     X_.^.P.t.r.g % O _ M Y 7.<.E O.J i.i.C.u.u.u.u.u.u.u.C.C.u.u.u.u.u.i.i.i.i.i.i.C.C.D.V.K 4.:X8.5.5.;., . uX8XQ.^.^.        ",
"     X^.^.P.t.r.g % O ) ,.Y 5.:.) O.J C.i.i.i.i.u.u.u.u.C.C.C.u.u.u.u.u.u.u.i.C.C.C.i.C.C.V.K 4.:X8.2.2.;., . uX8XU.^.^.        ",
"     X!.^.P.t.r.g * O ) >.5.5.:.) O.J i.i.i.i.i.u.u.u.u.u.C.C.C.C.C.C.C.C.C.C.C.C.C.i.i.D.V.K 4.:X8.2.2.;., . uX8XU.^.^.        ",
"     X!.!.P.y.e.g % O ) >.2.2.=.) O.n H H C.i.i.i.i.i.i.i.i.C.i.i.i.i.i.i.i.C.C.i.i.i.G P P <.<.dX8.2.2.;., X iX8XU.^.^.        ",
"     X!.!.v.t.e.g * O ' >.2.2.=.' O.M L m H H G G G G G G G G G G G G G G G G G G G P <.5.L ,.<.dX8.2.2.;., X iX8XU.!.!.        ",
"     XU.U.v.t.e.g % O ' =.2.2.=._ c L J L m M ,.,.,.,.,.,.,.,.1.,.,.,.,.,.,.,.,.,.<.<.L L Y 2.I :X8.2.1.=., @ uX3XR.!.!.        ",
"     .U.U.v.y.e.g % o ' =.2.2.3.w.;X>X:X:XdXsXsXsXsXsXsXsXsXsXsXsXsXsXsXsXsXsXsXsX-X-X:X:X-X-X7X>X3.1.1.=.q @ uX3XR.!.!.        ",
"     .I.I.v.y.e.g & o / =.1.,.1.8.9.9.9.9.9.0.0.0.9.0.q.q.q.0.9.9.9.9.9.9.9.q.q.9.9.0.0.0.0.0.9.8.1.1.1.=.q @ uX3XI.U.U.        ",
"     .I.I.v.y.k N & o / o.1.1.1.1.,.,.,.,.,.,.,.,.,.,.,.,.,.,.,.,.,.,.,.,.,.,.,.,.,.,.,.,.,.1.,.1.1.1.=...q @ uX3XL.U.U.        ",
"     .I.I.v.y.k N & o R @.=.>.>.>.1.1.1.1.1.1.1.1.1.1.1.1.;.;.;.;.;.;.;.;.;.1.1.1.1.1.1.1.1.1.1.1.1.1...` 2 @ uX3XL.I.U.        ",
"     .v.v.x.y.e.N & o R W ] o.o.o.o.o.o.o.+.+.+.+.+.+.+.+.+.o.+.+.o.o.o.o.o.o.o.o.o.o.o.o.=.=.=.=.=...` ` 2 @ uX3XL.I.P.        ",
"     .y.y.y.y.k N & O R E W ` W W ` ` W W W W W W W Q Q Q Q Q Q Q Q Q Q Q Q Q Q Q Q Q W W ` ` ` ` ` ` ' ' 2 @ uX9XP.T.x.        "
};
