/* XPM */
static char *_03ef80e7b184330a3d50211f9bf28ccwHX0lDHTCd19onnP[] = {
/* columns rows colors chars-per-pixel */
"32 32 151 2 ",
"   c black",
".  c #090909",
"X  c #161616",
"o  c #191919",
"O  c gray6",
"+  c #010101",
"@  c gray8",
"#  c #0C0C0C",
"$  c white",
"%  c gray15",
"&  c gray32",
"*  c gray1",
"=  c gray4",
"-  c #282828",
";  c gray12",
":  c #111111",
">  c #131313",
",  c #313131",
"<  c #464646",
"1  c #494949",
"2  c #484848",
"3  c #4C4C4C",
"4  c #505050",
"5  c #515151",
"6  c #4B4B4B",
"7  c #0E0E0E",
"8  c gray5",
"9  c #070707",
"0  c #0B0907",
"q  c #130A04",
"w  c #140B04",
"e  c #150B04",
"r  c #0E0A06",
"t  c gray3",
"y  c #020202",
"u  c #151515",
"i  c #181818",
"p  c gray5",
"a  c black",
"s  c black",
"d  c #2F2F2F",
"f  c #343536",
"g  c gray23",
"h  c #373737",
"j  c #393A3A",
"k  c #303031",
"l  c #1D1D1D",
"z  c #2C2C2C",
"x  c #4B4948",
"c  c #3C3D3D",
"v  c #0E0E0E",
"b  c #111111",
"n  c #434343",
"m  c None",
"M  c #1D1E1E",
"N  c #292A2B",
"B  c #403630",
"V  c #393A3B",
"C  c black",
"Z  c #222426",
"A  c #2B2C2D",
"S  c black",
"D  c #282A2B",
"F  c #323333",
"G  c #222426",
"H  c #2D2D2D",
"J  c #242728",
"K  c #2E2F30",
"L  c #26282A",
"P  c #303132",
"I  c #212325",
"U  c #2A2B2C",
"Y  c #27292A",
"T  c #313132",
"R  c #242628",
"E  c #2D2E2F",
"W  c #2C2C2D",
"Q  c #333434",
"!  c #252627",
"~  c #3E3027",
"^  c #6C3A15",
"/  c #723F18",
"(  c #724019",
")  c #733F17",
"_  c #4E3521",
"`  c #2D2E2F",
"'  c #070707",
"]  c #0C0907",
"[  c #140B04",
"{  c #160C05",
"}  c #160C04",
"|  c #0F0A06",
" . c #090909",
".. c black",
"X. c #514033",
"o. c #633D20",
"O. c #663E1F",
"+. c #543B28",
"@. c #4B4642",
"#. c #60442E",
"$. c #894B1C",
"%. c #93511F",
"&. c #935220",
"*. c #8F4F1E",
"=. c #6C3E1C",
"-. c #7D461B",
";. c #92511F",
":. c #91501F",
">. c #915120",
",. c #8C4D1C",
"<. c #594434",
"1. c #443226",
"2. c #8A4A1A",
"3. c #91511F",
"4. c #93511E",
"5. c #5E3E24",
"6. c #49372B",
"7. c #894A1A",
"8. c #90501F",
"9. c #7C461C",
"0. c #523A26",
"q. c #8A4A1B",
"w. c #8E4F1F",
"e. c #56361E",
"r. c #372E27",
"t. c #463528",
"y. c #8E4E1D",
"u. c #5B3D25",
"i. c #48372A",
"p. c #653511",
"a. c #643815",
"s. c #92501E",
"d. c #604026",
"f. c #433226",
"g. c #633512",
"h. c #633816",
"j. c #5D3D24",
"k. c #844719",
"l. c #8A4C1D",
"z. c #604027",
"x. c #463428",
"c. c #8A4B1B",
"v. c #5F3F25",
"b. c #443326",
"n. c #7F471C",
"m. c #513824",
"M. c #55361D",
"N. c #39312A",
"B. c #8B4B1B",
"V. c #5A3C24",
"C. c white",
/* pixels */
"                                                                ",
"                                                                ",
"                                                                ",
"                                                                ",
"                            . X o O   +                         ",
"                      @ # $ y u i p a % &                       ",
"                    * = s d f g h j k l - ;                     ",
"                    * a z x X.o.O.+.@.c v :                     ",
"                    > b n #.$.%.&.*.=.m M ,                     ",
"                    < N B -.;.:.>.;.,.<.V C                     ",
"                    1 Z 1.2.:.:.>.3.4.5.A S                     ",
"                    & D 6.7.:.:.>.8.9.0.F S                     ",
"                    2 G 1.q.:.:.>.w.e.r.H S                     ",
"                    3 J t.7.:.:.>.3.y.u.K S                     ",
"                    4 L i.p.a.8.>.3.s.d.P S                     ",
"                    < I f.g.h.8.>.3.s.j.U S                     ",
"                    5 Y i.k.l.3.>.3.s.z.T S                     ",
"                    6 R x.c.;.:.>.3.4.v.E S                     ",
"                    2 G b.q.:.:.>.8.n.m.W S                     ",
"                    & D 6.7.:.:.>.w.M.N.Q S                     ",
"                    2 Z 1.B.%.%.&.;.y.V.A S                     ",
"                    6 ! ~ ^ / / ( / ) _ ` S                     ",
"                    7 ' ] [ { { { { } |  ...                    ",
"                    8 9 0 q w w w w e r t                       ",
"                                                                ",
"                                                                ",
"                                                                ",
"                                                                ",
"                                                                ",
"                                                                ",
"                                                                ",
"                                                                "
};
