/* XPM */
static char *_6f66740820c42cce36e2e8429855b79eug2DWE5kNYGGHdx[] = {
/* columns rows colors chars-per-pixel */
"64 64 141 2 ",
"   c #150C0C",
".  c #1E1313",
"X  c #151913",
"o  c #181914",
"O  c #1C1E19",
"+  c #201414",
"@  c #251B1B",
"#  c #291E1E",
"$  c #321E1E",
"%  c #1E211C",
"&  c #21231E",
"*  c #29201F",
"=  c #232521",
"-  c #2C2222",
";  c #262924",
":  c #292A25",
">  c #342424",
",  c #382727",
"<  c #372827",
"1  c #372928",
"2  c #3C2B2B",
"3  c #402E2E",
"4  c #403E3E",
"5  c #483838",
"6  c #464444",
"7  c #484545",
"8  c #4C4A4A",
"9  c #534E4E",
"0  c #545454",
"q  c #595757",
"w  c #5D5C5C",
"e  c #5F6060",
"r  c #646464",
"t  c #686565",
"y  c #686666",
"u  c #6C6767",
"i  c #6A6666",
"p  c #676868",
"a  c #676868",
"s  c #686868",
"d  c gray42",
"f  c #6C6A6A",
"g  c #6C6B6B",
"h  c #6D6B6B",
"j  c #6C6C6B",
"k  c #6E6C6C",
"l  c #6F6C6C",
"z  c #6E6D6D",
"x  c #6F6D6D",
"c  c #6F6E6E",
"v  c #6C6B6B",
"b  c #706E6E",
"n  c #716F6F",
"m  c #706E6E",
"M  c #717070",
"N  c #707170",
"B  c #717170",
"V  c #717171",
"C  c #727070",
"Z  c #727171",
"A  c #737171",
"S  c #737272",
"D  c #747171",
"F  c #747271",
"G  c #747272",
"H  c #757272",
"J  c #757474",
"K  c gray46",
"L  c #767474",
"P  c #767575",
"I  c #777575",
"U  c #767675",
"Y  c #767676",
"T  c #767777",
"R  c #777777",
"E  c #757474",
"W  c #787575",
"Q  c #787676",
"!  c #787676",
"~  c #777878",
"^  c gray47",
"/  c #787979",
"(  c #797979",
")  c gray48",
"_  c #7C7C7C",
"`  c gray49",
"'  c #7E7D7E",
"]  c #7E7E7E",
"[  c #7E7F7F",
"{  c gray50",
"}  c #7C7C7C",
"|  c #808080",
" . c #818181",
".. c gray51",
"X. c #838383",
"o. c gray52",
"O. c #868686",
"+. c gray53",
"@. c #828282",
"#. c #8B8686",
"$. c #8D8B8B",
"%. c #8C8C8B",
"&. c #8F8C8C",
"*. c #8F8C8D",
"=. c #8F8D8D",
"-. c gray56",
";. c #8E8D8D",
":. c #908E8E",
">. c #908F8F",
",. c #918F8F",
"<. c #908F8F",
"1. c #8F908F",
"2. c #8F908F",
"3. c #90908F",
"4. c #90908F",
"5. c #929090",
"6. c #939090",
"7. c #949393",
"8. c #959393",
"9. c #939493",
"0. c #949493",
"q. c #969494",
"w. c #979494",
"e. c #979595",
"r. c #959393",
"t. c #989696",
"y. c #989898",
"u. c #989999",
"i. c gray60",
"p. c #9B9B9B",
"a. c gray61",
"s. c #9C9D9D",
"d. c #9D9D9D",
"f. c #9F9F9F",
"g. c #9D9D9D",
"h. c #A0A0A0",
"j. c gray63",
"k. c #A4A4A4",
"l. c #A5A5A5",
"z. c #A5A6A6",
"x. c #A2A2A2",
/* pixels */
"z.w.3 2 H ) w r i.z.h.z.z.z.z.z.z.d.X.B 2 2 H ) w r i.z.z.z.z.z.z.z.z.k.k.z.z.z.z.z.z.z.h.h.h.z.z.z.z.z.z.h.X.B 2 2 H ) w r d.z.",
"h.5.2 1 b K r r i.h.d.d.d.d.d.d.h.d.o.Q 2 2 c K r r i.h.d.d.d.d.d.d.d.d.d.d.d.d.d.d.d.d.d.d.d.d.d.d.d.d.h.d.o.K 2 2 b K r r i.h.",
"X.K = & q r K ) X.X.X.X.X.X.X.X.X.o.d.3.: & q r K ) X.X.X.X.X.X.X.X.X.X.X.X.X.X.X.X.X.X.X.X.X.X.X.X.X.X.X.o.d.3.: & q r K ) X.X.",
"] B = & w s ) ] ] ] ] ] ] ] ] ] ] X.d.1.; % 0 r ) ] ] ] ] ] ] ] ] ] ] ] ] ] ] ] ] ] ] ] ] ] ] ] ] ] ] ] ] X.d.1.; % w s ) ] ] ] ",
"] H 2 2 =.i.X.] ] ] ] ] ] ] ] ] ] ] X.K = % 0 r ) ] ] ] ] ] ] ] ] ] ] ] ] ] ] ] ] ] ] ] ] ] ] ] ] ] ] ] ] ] X.K = ; %.i.X.] ] ] ",
"] H 2 2 5.d.o.X.] ] ] ] ) K K ) ] ] Q s & % q r ] X.] ] ] ] K K K K K ) ] ] ) ) ] ] Q K _ ] ] ] ) ) ] ] ] ] ] B & ; 3.d.o.X.] ] ",
"] B - - K o.d.d.X.] ] ) q 0 0 q ) ) q 8 @ * c ] d.d.X.] ] ) q 0 0 0 0 q ) ) q q ) ) q q ) ] ] ) q q ) ] ] ] ] B * - K o.d.d.X.] ",
"B t # # r K ,.,.Q H H c 8 6 6 8 c c 8 4 @ # r K ,.,.K B B g 8 6 7 6 6 8 j j 8 8 c c 8 8 c B B j 8 8 c H H H B t # # r K 5.5.Q H ",
"# # + + # - - > 2 2 2 2 > > > > 2 , @ @ . . # # - - - - # # > > > > > > = & O % < < % % < 2 = = > > 2 2 2 2 - # . . & = 2 2 2 2 ",
"# # - # + . # # > , 2 2 3 3 3 3 3 2 > - - - - - # # . . # - > , 2 3 3 2 : ; ; : 2 2 : : 2 2 : : 2 2 $ $ > > # # - - ; : 2 3 3 3 ",
"B B B t # # t c q w =.w.w.w.w.w.w.w.7.7.7.7.7.,.K r # # t c q w =.w.7.7.0.9.9.0.w.w.0.0.w.w.0.1.Q u 2 > 9 q 0 w $.7.9.0.w.w.w.w.",
"] ] ] B - # c K r r i.h.h.h.h.h.h.h.h.h.h.h.h.d.o.K - - c K r p i.h.h.d.h.h.h.h.h.h.h.h.h.h.h.d.o.Q 2 > q w w s i.h.h.h.h.h.h.h.",
"] ] ] H 2 > q r K ) X.X.X.X.X.X.X.X.X.X.X.X.X.o.d.5.2 > q r K ) X.X.X.X.X.X.X.X.X.X.X.X.X.X.X.o.d.5.3 > q w K ) X.X.X.X.X.X.X.X.",
"] ] ] H 2 , w r ) ] ] ] ] ] ] ] ] ] ] ] ] ] ] X.d.5.2 > w p ) ] ] ] ] ] ] ] ] ] ] ] ] ] ] ] _ X.d.5.2 > w s ) ] ] ] ] ] ] ] ] ] ",
"] ] ] H 2 2 =.i.X.] ] ] ] ] ] ] ] ] ] ] ] ] ] ] X.K = : %.i.X.] ] ] ] ] ] ] ] ] ] ] ] ] ] ] ] ] X.K = : %.i.X.] ] ] ] ] ] ] ] ] ",
"] ] ] H 1 2 w.h.X.] ] ] ] ] ] ] ] ] ] ] ] ] ] ] ) s & ; 0.h.X.] ] ] ] ] ] ] ] ] ] ] ] ] ] ] ] ] ] B & ; 0.h.X.] ] ] ] ] ] ] ] ] ",
"] ] ] B = : 0.h.X.] ] ] ] ] ] ] ] ] ] ] ] ] ] K q 8 O ; 9.h.X.] ] ] ] ] ] ] ] ] ] ] ] ] ] ] ] ] ] B & ; 9.h.X.] ] ] ] ] ] ] ] ] ",
"] ] ] B & ; =.d.o.X.] ] ] ] ) ) ] ] ) K K ) ] / q 8 O ; =.d.o.X.] ] ] ] K K K K ] ] K K K K ] ] ] B & ; =.d.o.X.] ] K K ] ] ] ] ",
"] ] ] B * - K o.d.d.X.] ] ) q q / / q 0 0 q ) ] ) g # * K o.d.d.X.] ] ) q 0 0 q ) ) q 0 0 q ) ] ] B # * K o.d.d.X.) q q ) ] ] ] ",
"H H B t # # r K ,.,.K H H c 8 8 c c 8 6 6 8 c H B r # # r K ,.,.Q B H c 8 6 6 8 c c 8 6 6 8 c H B r # # r K ,.,.K g 8 8 c H H H ",
"2 2 - # . . . @ - - 2 2 2 2 > > 2 2 > > > > 2 2 - #     . @ - > 2 2 2 2 > > > > 2 2 > > > > 2 2 - # . . # # - - # # > > 2 2 2 2 ",
"3 2 > - - #     # # > , 2 3 3 3 3 2 3 3 3 3 3 2 - - @ .     # # > , 2 3 3 3 3 3 2 2 3 3 3 3 3 2 > - - - # # . . # - > , 2 2 2 2 ",
"w.w.7.,.K r # # t c q w =.w.w.w.w.q.w.w.w.w.w.w.7.,.K r . . r c q w =.w.w.w.w.w.w.w.w.w.w.w.w.w.7.7.7.,.K r # # t c q w =.w.w.w.",
"h.h.h.d.o.K - - c K r p i.h.h.h.h.h.h.h.h.h.h.h.h.d.o.K @ @ c K r p i.h.h.h.h.d.h.h.h.h.h.h.h.h.h.h.h.d.o.K * # t b r s u.h.h.d.",
"X.X.X.o.d.5.2 > q r K ) X.X.X.X.X.X.X.X.X.X.X.X.X.o.d.5.2 > q r K ) X.X.X.X.X.X.X.X.X.X.X.X.X.X.X.X.X.o.d.1.; o # 1 c ) X.X.X.X.",
"] ] ] X.d.5.2 , w p ) ] ] ] ] ] ] ] ] ] ] ] ] ] ] X.d.5.2 > w p ) ] ] ] ] ] ) ) ] ) ) ) _ ] ] ] ] ] ] X.d.1.; o - 2 B ] ] ] ] ] ",
"] ] ] ] X.Q 2 2 =.i.X.] ] ] ] ] ] ] ] ] ] ] ] ] ] ] X.K = : =.i.X.] ] ] ] ] ] ] ] ] ] ] ] ] ] ] ] ] ] ] X.K = ; o.5.] ] ] ] ] ] ",
"] ] ] ] ] B 2 2 5.d.o.X.] ] ) K K K K K K K K K K K ] B & ; 1.d.o.X.] ] ] ) K K ] ] K K ] ] K K K K K K ] B & ; 5.d.o.X.] ] ] ] ",
"] ] ] ] ] B - - K o.d.d.X.) q 0 0 0 0 0 0 0 0 0 0 q ) B & = K o.d.d.X.] ] ) q q ) ) q q ) ) q 0 0 0 0 q ) B # * K o.d.d.X.] ] ] ",
"H H H H B r # # r K 5.5.Q c 8 6 6 6 6 6 6 6 6 6 6 8 c r & & r K 5.5.Q H H c 8 8 c c 8 8 g g 8 6 6 6 6 8 g t # # r K 5.7.Q B H H ",
"2 2 2 2 - # . . # - 2 2 2 2 > > @ @ @ @ @ @ > > > > # # . . # - 2 2 2 2 2 2 > > 2 2 > > 2 , @ @ @ @ @ @ # # . . # - 2 2 2 2 2 2 ",
"3 3 3 2 > - - - - > 2 2 3 3 2 2 - # + + # - > , 2 2 > - - - - > 2 2 2 2 2 2 3 3 2 2 2 2 2 2 - # + + # # @ # - - - > 2 2 2 2 2 2 ",
"w.w.w.w.7.5.7.7.7.7.w.w.w.w.w.5.K r # # t c q w =.w.7.7.7.7.7.7.w.w.w.w.w.w.w.7.7.7.w.w.w.,.K r # # t c q w $.7.7.7.w.w.7.7.w.w.",
"h.h.h.h.h.f.h.h.h.h.h.h.h.h.h.d.o.K * # c K r p i.h.h.h.h.h.h.h.h.h.h.h.h.h.h.d.h.d.h.h.h.d.o.L - # c K r p i.h.h.h.h.h.h.h.h.h.",
"X.X.X.X.X.X.X.X.X.X.X.X.X.X.X.o.d.1.; % q r K ) X.X.X.X.X.X.X.X.X.X.X.X.X.X.X.X.X.X.X.X.X.o.d.1.; % q r K ) | X.X.X.X.X.X.X.X.X.",
"] ] ] ] ] ] ] ] ] ] ] ] ] ] ] X.d.1.; % w s ) ] ] ] ] ] _ _ _ ] ] ] ] ] ] ] ] ] ] ] ] ] ] X.d.1.; % w s ) ] ] ] ] ] ] ] _ _ _ _ ",
"] ] ] ] ] ] ] ] ] ] ] ] ] ] ] ] X.K = ; %.i.X.] ] ] ] ] ] ] ] ] ] ] ] ] ] ] ] ] ] ] ] ] ] ] X.K = ; =.i.{ _ ] ] ] ] ] ] ] ] ] ] ",
"] ] ) K K K K ) ] ] ] ] ) ) ] ] ] B = : 5.d.o.X.X.X.] ) K K K K ] ] ] ) K K K K _ ] K K K K ] B & ; 3.d.o.{ ] ] ] ] ] ] ] ] ] ] ",
"] ) q 0 0 0 0 q ) ] ] ) q q K ] ] H 2 2 Q +.d.h.h.i.X.K q 0 0 q ) ] ] K q 0 0 q ) / q 0 0 q ) B * - K o.d.d.X.] ] ] ] ] ] ] ] ] ",
"H c 8 6 6 6 6 8 g B B g 8 8 c B B t 2 2 t Q 5.w.w.5.K s 8 6 6 8 g b b s 8 6 6 8 c c 8 6 6 8 c r # # r K 5.5.Q B H B B B H H H H ",
"2 < % O O O @ @ # - # # > > 2 2 & & # $ 2 2 2 2 2 2 = & O O @ @ # - # # > > > > 2 < % O > > = & . . # - 2 2 2 2 2 2 2 2 2 2 2 2 ",
"3 2 : ; ; ; - # . + # - > , 2 2 : : 2 3 2 2 2 2 2 2 : ; ; ; - # + + # - > , 2 3 3 2 : : 2 2 : ; - - - > 2 2 > > 2 2 > , 2 2 2 2 ",
"w.w.0.9.9.=.K r # # t c q w =.w.0.0.w.w.w.w.w.w.w.w.0.9.9.=.K r # # r c q w =.w.w.w.0.0.w.w.0.9.5.5.7.=.Q t 2 2 g b q w =.w.7.7.",
"h.h.h.h.h.d.o.K - - c / r s i.h.d.h.h.h.h.h.h.h.h.h.h.h.h.d.o.K - - K ] s c i.h.h.h.h.h.h.h.h.h.h.h.h.d.o.Q 2 1 b K r s i.h.d.h.",
"X.X.X.X.X.o.d.5.2 > q r K ) X.X.X.X.X.X.X.X.X.X.X.X.X.X.X.o.d.1.; ; 1.h.d.i.o.X.X.X.X.X.X.X.X.X.X.X.X.o.d.3.: & q r K ) X.X.X.X.",
"] ] ] ] ] X.d.5.3 , w s ) ] ] ] ] ) ] ] ] ] ] ] ] ] ] ] ] X.d.1.; ; %.d.d.i.X.] _ ] _ ) ] ] ] ] ] ] _ { d.=.; % w s ) ] ] ] _ _ ",
"] ] ] ] ] ] X.Q 2 2 =.i.X.] ] ] ] ] ] ] ] ] ] ] ] ] ] ] ] ] X.K = % w s ] X.] _ ] ] ] ] ] ] ] ] ] ] ] ] X.K = ; =.i.X.] ] ] ] ] ",
"] ] ] ] ] ] ] H 2 2 5.d.o.X.] ] ] ) K K ] ] K K K K K K K K ] B = & q r ] X.] ) ] ] ] ] ] ] ] ] ] ] ] ] ] B = : 3.d.o.X.] ] ] ] ",
"] ] ] ] ] ] ] H 2 2 Q o.d.d.X.] ] ) q q Q Q q 0 0 0 0 0 0 q ) H 2 1 b ] d.d.X.] ] ] ] ] ] ] ] ] ] ] ] ] ] H 2 2 Q o.d.d.X.] ] ] ",
"H H B B B B H g 2 2 u Q 3.3.Q H H c 8 8 g g 8 6 6 6 6 6 6 8 c g 2 2 u Q 5.5.Q B H H H H H B B B B B B B H u 2 2 t Q 7.7.Q B H H ",
"2 2 = & & = 2 2 $ $ 2 2 : : 2 2 2 2 > > 2 1 % O O O > > > > 2 2 $ $ 2 2 2 2 2 2 2 2 2 2 2 2 = & & & & = 2 2 $ $ 2 2 2 2 2 2 2 2 ",
"3 2 : ; ; : 2 3 3 3 3 2 : : 2 2 > > 2 2 > > : ; ; : 2 3 3 3 2 2 3 3 3 3 2 2 2 2 > > 2 2 , > : ; ; ; ; ; $ > 2 3 3 3 2 2 3 3 3 3 ",
"w.w.0.9.5.5.w.w.w.w.w.w.0.=.Q u 2 2 g b q w %.9.5.5.w.w.w.7.w.w.w.w.w.w.w.5.Q t , , u b q w %.9.5.5.w.o.2 2 #.w.w.w.7.w.w.w.w.7.",
"h.h.d.d.z.z.z.z.z.z.z.z.z.h.X.B 2 2 H ) e r d.z.z.z.z.z.z.z.z.z.z.z.z.z.z.h.o.) 5 5 ) ] s c d.z.z.z.h.5.2 2 5.h.d.d.d.d.h.h.h.d.",
"X.] r c d.z.z.z.z.z.z.z.z.h.X.B 2 2 H ) w r d.z.z.z.z.z.z.z.z.z.z.z.z.z.z.z.h.d.t.t.d.d.d.d.h.z.z.h.o.K 2 2 Q ] s s ] X.X.X.X.X.",
") K r r w.h.d.d.d.d.d.d.h.d.o.K 2 1 b K r r i.h.d.d.d.d.d.d.d.d.d.d.d.d.d.h.h.h.h.h.h.h.h.h.d.d.d.d.o.K 2 1 b K r r ) ] ] ] ] ] ",
"w r K ) X.X.X.X.X.X.X.X.X.o.d.3.: & q r K ) X.X.X.X.X.X.X.X.X.X.X.X.X.X.X.X.X.X.X.X.X.X.X.X.X.X.X.o.d.3.: & q r K ) ] ] ] ] ] ] ",
"r r ) ] ] ] ] ] ] ] ] ] ] X.d.1.; % 0 r ) ] ] ] _ _ ] _ ] ] ] ] ] ] ] ] ] ] _ _ ] ] ) ) ] ] ] ] ] X.d.1.; % w s ) ] K K K K ] ] ",
"d.i.X.] ] ] ] ] ] ] ] ] ] ] X.K = % 0 r ) ] ] ] ] ] ] ] ] ] ] ] ] ] ] ] ] ] ] ] ] ] ] ] ] ] ] ] ] ] X.K = ; =.i.X.K q 0 0 q K ] ",
"h.d.o.X.] ] ] ] ) K K K ] ] ) s & % q r ] X.] ] ] ) K K K K K K ] ] K K ] ] K K ) ] ] ) K K ] ] ] ] ] B & ; 3.d.o.) q 0 0 q K ] ",
"X.o.d.d.X.] ] ) q 0 0 q ) ) q 8 @ # c ] d.d.X.] ] ) q 0 0 0 9 q K K q q ) ) q q K ] ] ) q q ) ] ] ] ] B * - K o.d.p.] K K ) ] ] ",
"B K ,.,.Q H H c 8 6 6 8 c c 8 4 @ # r K ,.,.K B b g 8 6 6 6 6 8 g s 8 8 c c 8 8 c H B s 8 8 c H H B B r # # r K 5.5.Q H H H H H ",
"- - - > 2 2 2 2 > > > > 2 2 # @ . . # - - - - # # - > > > > > > = = % & 2 1 & % 2 2 = = > > 2 2 2 2 - # + . & = 2 2 2 2 2 2 2 2 ",
". . . + $ $ $ $ $ $ $ $ $ $ + . . . . . . . . . . + $ $ $ $ $ # o X X o # # o o # # o o $ $ $ $ $ # + . . . X o # $ $ $ $ $ $ $ "
};
