/* XPM */
static char *_8a00ff8171f4425a6485bbdeb2e1f0bQSZvfvUD89YGd43h[] = {
/* columns rows colors chars-per-pixel */
"64 64 91 1 ",
"  c None",
". c #F9F9FA",
"X c #F6F5F5",
"o c #F6F6F7",
"O c #F9F8F9",
"+ c #FDFCFC",
"@ c gray95",
"# c #F7F7F8",
"$ c #F2F1F1",
"% c #FDFEFE",
"& c #ECECEC",
"* c #F3F3F4",
"= c #EFEEEE",
"- c #F0EFEF",
"; c #FCFBFB",
": c #ECEBEB",
"> c #EDEDEE",
", c #FFFEFF",
"< c #F0F0F1",
"1 c #EBEAEA",
"2 c #FAFBFB",
"3 c #F0A211",
"4 c #EBB445",
"5 c #F5F4F5",
"6 c #EAAB44",
"7 c #EDDFD2",
"8 c #E9C182",
"9 c #E8B052",
"0 c #E9CCA5",
"q c #EDB024",
"w c #F6EDE8",
"e c #E9B558",
"r c #F0AF14",
"t c #F3B70D",
"y c #EBC789",
"u c #EDCB96",
"i c #EBA52D",
"p c #EAC390",
"a c #F9DD78",
"s c #EBD5BC",
"d c #F5C015",
"f c #E8BB66",
"g c #EEE4DA",
"h c #EAB038",
"j c #F3DBBC",
"k c #EDAA35",
"l c #E6BC78",
"z c #FCEF8B",
"x c #F3E0C5",
"c c #F6CB5B",
"v c #F9DC55",
"b c #F3EAE3",
"n c #EDA21D",
"m c #FDFFCE",
"M c #ECD9C6",
"N c #F8F3F1",
"B c #FDFDC0",
"V c #FBE78A",
"C c #F6E4CF",
"Z c #F7EADC",
"A c #F2A817",
"S c #EED1A2",
"D c #EFD7B2",
"F c #EAB760",
"G c #EEBE72",
"H c #F6C64B",
"J c #E6C699",
"K c #FEFDB4",
"L c #F8D33C",
"P c #EEE6E2",
"I c #ECD1B1",
"U c #F4B52D",
"Y c #E6B66C",
"T c #F7C925",
"R c #F9E17E",
"E c #F1C15A",
"W c #FDF7F3",
"Q c #F6BD38",
"! c #F6D16A",
"~ c #FCF8BC",
"^ c #FBE89B",
"/ c #FDF59B",
"( c #FCF0A9",
") c #EDC479",
"_ c #FCEA77",
"` c #F8D772",
"' c #FDF6B1",
"] c #FBF1E7",
"[ c #FBE361",
"{ c #F4BE4A",
"} c #F9E189",
/* pixels */
"--2 X>o 2=<% *>O .>* %<=2 o>o 2=<% *>O O>* %<-+ o>X 2=<% *>. .=@",
"-=+ X&X 2=<% *>. .>* %<=+ o&o +=<% @>. .>@ %<=+ X&X +=<% @>. .>@",
"2+X$O+O$X+2*@.+o$o+.@*2+5@O+O@X+2*@.+o@#+.@*2+X$O+O$X+2*@.+o$o+2",
"  $:. .:@  -&+ X1X +&-  $:. .:@  -&+ X:X +&-  @:. .:@  -&+ X:X +",
"XXO.#X#.OXoO.oX#.#Xo.OoXO.#X#.#XXOOoX#.#Xo.OXXO.oX#.OXoO.oX#.#Xo",
">&+ X1X +&=  $1. .1$  =&+ X1o %><  @:. .1@  =&+ X1X +&=  $1. .:<",
"oXO.#X#.#XoOOoX#.#Xo.OXo..#5NNwwbwNN5O.#XoOOooO.#X#.OXoOOoX#.#Xo",
"  $:. .:$  -&+ X1X +&-  :77xIJJSuJJDx77- %>=  $:. .:@  -&+ X1X +",
"22X@O+#$X+2*@.+o$o+2*=Zx08le6iiiiii6Fl80xb=*2+X@O+O$X+2*@.+o$o+2",
"==+ X&X +=<% @&. .>:ZD89kn3AU{HccHQqA3i6YpjZ:=+ X&X +=<  @&. .>$",
"<<2 o=o 2<$+%*-O NM089nA{a(~BBK'KKBB'}cq3iFyIg2 o-o 2<$+%*-. O-*",
"%%*-O O-* +$-2 XgIy9nq`~BzvLdtttttdTvzKB^Q3ifuM1. O-* +$-2 o=o 2",
"  @&. O&@ %->+ 7JFiA`m/vdrrh49efF9hhqrdLzm^U39l0w .&@ %<=+ X&X +",
"**.+o$o+.@*2+$Mp93H~'Ltr4f8JSjjMMxjSpf4qtTzm`3if0go+.@*2+5@O+O@5",
">>+ X1X +&- +sl6Aamvtq9YSxgg$ ;>=  =gZxy9qtLK(UAepg +&-  @:. .:$",
"O.oX#.#XoO.$M8kA(KTr4lSxb*O.#X#..oX#.O5wxyeqdzBQneugoOOoXO.#X#.O",
"  $1. .1$ ,slkr'/dqf8sN @:. .1< ,&&+ X1o ]0f4d[mQnFJP  =&+ X1X %",
"..oX#.#Xo#Cp6A(/thfSg*..oX#.o7JpppsN.oXo..@7y4tvBQnYIN.oXO.#X#.O",
">>+ X1X %7Je3V/thG0g  =&+ X>bG4EE{FM&. .:$  7p4t[BUk8s>  $:. .:$",
"**.+o$o+XIYn!KdqGDbX+2*@.+#:s6R[[zh0Po%O@X22*gu4t_(A6pg+2X@O+O@5",
"  @&. O>7ykUBLqfJb ;><, @PMG64V4hV{4eJ7* +=-% g84d/a3fj:=; X&o +",
"%%*-O .P0e3^_reu7o 2<$+ bpkcVRcyuc}}`49sW2-$+%*MlqLBQky7<2 o=o 2",
"<<2 o=XZ8nHKdhlx,O=* +@:0kRR4Gpp899ec/Hk0- +$-2+Det_^39D;*=O O-*",
"==+ X&$je3([rF0N O&@ %<M6`a6sIG!!!E96dKc9g %<=; b8hTm{iu]*&O .>$",
"2+X$O%bpiQKThyZ#$o+.@*.u4zUxSE}cEcV`qvBLFw**2+5@#xftz^3YsO+o@o+2",
"  @:. xY3}zrej+o1X +&<;GcvfZEV4pjph`/KLkj.>=  @:.WyqLmU6JW X1X +",
"oXO.#$I9A~Lq87o#.#XoO.-Y!v8M)[61OoMhvLh0w#OOooOO#*DedKciyP##.#Xo",
">&+ o7JkQKd4SP:O .1$  1Y!vfMFzQY7,;I9fjN:$  =&+ X:7)tz^3)M:. .:$",
"ooOOOg8n!/tFD@o#.#XoOOXp{_h7uEVc98jPgbo#Xo.OooO.oobyqv'Aes5#.#Xo",
"  @:.ZG3}_rfs+ X1X +&= Z6VHGPJF`R!eeug:X +&-  $:O NJhLBq6D,o1X +",
"2+X@#xY3([ql7.+o$o+.@*2.p4/Hes7u))aaE60w+.@*2+5@O+XI4TBQkSW#$o+2",
"==+ 5IeA'vqy]*&. .&@ %--wGhVaE)0MCuERak87@ %<=+ X&5xedBHkJP. .>$",
"<<2 5I9A~Lqy]5=O O-* +$<2]8kEaR!fyCMevzklb +$<2 o=oxedKHkJP. O-@",
"%%*-#xeA~Lq8g+ o=o 2<$+%*-NC864caaeuwfvViD=@+%*-O OsedKHiuW#=o +",
"  @&#xeA~vq87% X&X +=-% @&. #gsy9{VESg4zHfP<% @&O #IedBHi0Wo:X +",
"*@.+XsF3(vqyZo$O+O@5+2*@.+#@#+2@gpkRf7SLR6Z+@@.+o@5j4TBQk0:O+O@5",
">>+ XsY3^_r)Z@:. .:@  =&%,7Mw +&=W8{!SCH_6C =&+ X:$D4TBU90P. .:$",
"O.oX.Z8n`/tfjo.#X#.OXoO.w06hJw#.O$04auMH_6M#O.oX#.wJqv~A9s##X#.O",
"  @1.WuiHKd9JW X1X +&= Npn`VkY7 +79Ea00L_hM-  $1. Zlr_^3YC X1X +",
"..oX#NI6qBLqyZ.#X#.OXowpnaaEVHe889EV{78v`9P#OOoX#Ojed'!n8b.oX#.O",
">>+ X1MG3^_rGs1. .:@  siRaiYe`a`!aa40sQ/hp+ =&+ ogu4TmU6Sb:. .:$",
"**.+o$gyicKd4uP.+O@X++76`RkpIpGGGG8Iphzc67+2**2+oMlt_(3Fj*@O+O@5",
"  @&. NJ9r~vqGC5&X +><;DiczcflpjjplFczcij.=-% @>ND4dmcil7+ X&X +",
"%%*-O OMln`/d4ug<X 2-$%.s94aRa!8ycaRaU6s;2-$+%*=xGt[~A9012 o=o 2",
"<<2 X=#WS6r~vreDW.=*%+$<.]094{V66VHh6pw#-*,+@-+]yhTmcnlC *-O O-@",
"-=+ X&o CYncBTh8CX>@ %<>+ oPM6aaaz4IPO .&* %--ND4tz(390W @&. .>$",
"++X@O+#@wIe3^zth8x2.@*2+5$# $84EE4lw o$o+2@*+WDFrvmUi8Z5$.+o@o+2",
"  $:. .:@]ykr~[t9yZ;>=  @:O .7sjjI7+ X1X +&<WjfqLmcnYx+-&+ X1X +",
"oXO.oX#O#*MliQmvt4yxN.oXO.#X#..O...oX#.#X#.wIfqTma39ub#O.oX#.#Xo",
">&+ X1X +>1jGnQmvthlj]=>+ X1X +:=  $1. .&-ZS9rTB}36uZ&-  $1. .:<",
"XXO.#X#.OX#wSFnQm_tqfuxw#.#X#O#XXOOooO.XbD84rLm}368C#ooO.oX#.#oo",
"  $:. .:$  -gSfnU~/Trh)Ss7N O:@  ->+ -MDuFqt[m`36yx1@  -&+ X1X +",
"2+X@O+O@X+2**wDYiA}m[tr4f8Sjx7gwwg7Cj0leqrT'mH368Co@5+2*@2+o$o+2",
"==+ X&X +=<  *PD)63H'Kvdrqh9f)yl8y)Y9hrrTzm}rnFS7:o +><  @&. O>$",
"<<2 o=o 2<$+%*-NCu9nAc'BVLdtrrrArrrrtTv'm^Q3kYD]o=X 2<@+%*-O O-*",
"%%*-O O-* +$<2 o=bj89n3Q}'B'zVRaaRV(~B(`U3iYuC-<O .-* +$<2 o=o 2",
"  @&. O&@ %<=+ X&o,Z0lFknAUH`RV^^Va!{q3n6GpsN *&O .&@ %<>+ X&X +",
"*@.+o$o+.@*2+5@O+#@oObsJ8F6inn3333nni9Gp07N25@.+o$o+2@*2+5@O+O@5",
">>+ X1X +&-  @:. .:@  =PbCIJpy8llyuJJjZw1*  =&+ X:X +&-  @:. .:$",
"..oX#.#Xo..oXO.#X#.OXXO.OoXNwbPbZPb$XooO.OXXO.oX#.#Xo.OoXO.#X#.O",
"  $:. .1$  =&+ X1X +&=  $1. .&*  <>% X1X +&=  @1. .1$  =&+ X1X +",
"..oX#.#Xo.OoXO.#X#.OooO.oX#.#XoOOXXO.oXo.OXoO.oX#.#XoOOoXO.#X#.O",
"=>+ X:X +>-  @:. .:@  ->+ X:X +>-  @:. .:@  ->+ X:o +>-  @:. .&$",
"@@2+o<o+2$*2+5$O%O$5+2*$2+o$o+2$@++5$O+O$5+2@$2+o<o+2$*2+5$O+O$5"
};
