/* XPM */
static char *_4e80f1e766e44828f4d225ec94a6d7cZz7YyLuKpJFG8S36[] = {
/* columns rows colors chars-per-pixel */
"64 64 20 1 ",
"  c None",
". c #FFCC00",
"X c #FFCC00",
"o c #FFCC00",
"O c #FFCC00",
"+ c #FFCC00",
"@ c #FFCC00",
"# c #FFCC00",
"$ c #FFCC00",
"% c #FFCC00",
"& c #FFCC00",
"* c #FFCC00",
"= c None",
"- c #FFCC00",
"; c #FFCC00",
": c #FFCC00",
"> c #FFCC00",
", c #FFCC00",
"< c #FFCC00",
"1 c #FFCC00",
/* pixels */
"                          X$*;>:##:>;*$X                        ",
"                       $;#.Oo==<<<<==oO.#;$                     ",
"                    $;&O=<<<<<<<<<<<<<<<<=+.;$                  ",
"                  $:-=<<<<<<<<<<<<<<<<<<<<=<=-:$                ",
"                X>O<<<<<<<<<<<<<<<<<<<<<<<<<<<<O>X              ",
"               *-=<<<<<<<<<<<<<<<<<<<<<<<<<<<<<<=-%             ",
"             X#o<<<<<<<<<<<<<<<<<<<<<<<<<<<<<<<<<<o#X           ",
"            @.<<<<<<<<<<<<<<<<<<<<<<<<<<<<<<<<<<<<<<.@          ",
"           ,-<<<<<<<<<<<<<<<<<<<<<<<<<<<<<<<<<<<<<<<<-*         ",
"          *O<<<<<<<<<<<<<<<<<<<<<<<<<<<<<<<<<<<<<<<<<<O*        ",
"         *O<<<<<<<<<<<<<<<<<<<<<<<<<<<<<<<<<<<<<<<<<<<<O*       ",
"        @-<<<<<<<<<<<<<<<<<<<<<<<<<<<<<<<<<<<<<<<<<<<<<<O,      ",
"       $.<<<<<<<<<<<<<<<<<<<<<<<<<<<<<<<<<<<<<<<<<<<<<<<<.$     ",
"       #<<<<<<<<<<<<<<<<<<<<<<<<<<<<<<<<<<<<<<<<<<<<<<<<<<&     ",
"      ;o<<<<<<<<<<<<<<<<<<<<<<<<<<<<<<<<<<<<<<<<<<<<<<<<<<o;    ",
"     $-<<<<<<<<<<<<<<<<<<<<<<<<<<<<<<<<<<<<<<<<<<<<<<<<<<<<O$   ",
"     #<<<<<<<<<<<<<<<<<<<<<<<<<<<<<<<<<<<<<<<<<<<<<<<<<<<<<<#   ",
"    ,+<<<<<<<<<<<<<<<<<<<<<<<<<<<<<<<<<<<<<<<<<<<<<<<<<<<<<<+,  ",
"    #<<<<<<<<<<<<<<<<<<<<<<<<<<<<<<<<<<<<<<<<<<<<<<<<<<<<<<+&@  ",
"   @+<<<<<<<<<<<<<<<<<<<<<<<<<<<<<<<<<<<<<<<<<<<<<<<<<<<<+&,    ",
"   :<<<<<<<<<<<<<<<<<<<<<<<<<<<<<<<<<<<<<<<<<<<<<<<<<<<+&,      ",
"  X-<<<<<<<<<<<<<<<<<<<<<<<<<<<<<<<<<<<<<<<<<<<<<<<<<+&,        ",
"  *o<<<<<<<<<<<<<<<<<<<<<<<<<<<<<<<<<<<<<<<<<<<<<<<+#,          ",
"  :<<<<<<<<<<<<<<<<<<<<<<<<<<<<<<<<<<<<<<<<<<<<<<+#@            ",
"  .<<<<<<<<<<<<<<<<<<<<<<<<<<<<<<<<<<<<<<<<<<<<O#@              ",
" $O<<<<<<<<<<<<<<<<<<<<<<<<<<<<<<<<<<<<<<<<<<O#@                ",
" *o<<<<<<<<<<<<<<<<<<<<<<<<<<<<<<<<<<<<<<<<O#@                  ",
" >=<<<<<<<<<<<<<<<<<<<<<<<<<<<<<<<<<<<<<<O:@                    ",
" #<<<<<<<<<<<<<<<<<<<<<<<<<<<<<<<<<<<<<O:$                      ",
" &<<<<<<<<<<<<<<<<<<<<<<<<<<<<<<<<<<=O:$                        ",
" .<<<<<<<<<<<<<<<<<<<<<<<<<<<<<<<<<O:$                          ",
" .<<<<<<<<<<<<<<<<<<<<<<<<<<<<<<<O>$                            ",
" .<<<<<<<<<<<<<<<<<<<<<<<<<<<<<<<-%X                            ",
" .<<<<<<<<<<<<<<<<<<<<<<<<<<<<<<<<o.%X                          ",
" &<<<<<<<<<<<<<<<<<<<<<<<<<<<<<<<<<<o.%X                        ",
" #<<<<<<<<<<<<<<<<<<<<<<<<<<<<<<<<<<<<o.%X                      ",
" >=<<<<<<<<<<<<<<<<<<<<<<<<<<<<<<<<<<<<<o.%X                    ",
" %o<<<<<<<<<<<<<<<<<<<<<<<<<<<<<<<<<<<<<<<o.%X                  ",
" @O<<<<<<<<<<<<<<<<<<<<<<<<<<<<<<<<<<<<<<<<<o.%X                ",
" X.<<<<<<<<<<<<<<<<<<<<<<<<<<<<<<<<<<<<<<<<<<<o.%X              ",
"  #<<<<<<<<<<<<<<<<<<<<<<<<<<<<<<<<<<<<<<<<<<<<<o.%X            ",
"  %o<<<<<<<<<<<<<<<<<<<<<<<<<<<<<<<<<<<<<<<<<<<<<<o.%X          ",
"  X-<<<<<<<<<<<<<<<<<<<<<<<<<<<<<<<<<<<<<<<<<<<<<<<<o.%X        ",
"   #<<<<<<<<<<<<<<<<<<<<<<<<<<<<<<<<<<<<<<<<<<<<<<<<<<o.%X      ",
"   ,+<<<<<<<<<<<<<<<<<<<<<<<<<<<<<<<<<<<<<<<<<<<<<<<<<<<o.%X    ",
"   X&<<<<<<<<<<<<<<<<<<<<<<<<<<<<<<<<<<<<<<<<<<<<<<<<<<<<<o.%X  ",
"    *o<<<<<<<<<<<<<<<<<<<<<<<<<<<<<<<<<<<<<<<<<<<<<<<<<<<<<<O,  ",
"     &<<<<<<<<<<<<<<<<<<<<<<<<<<<<<<<<<<<<<<<<<<<<<<<<<<<<<<&   ",
"     @O<<<<<<<<<<<<<<<<<<<<<<<<<<<<<<<<<<<<<<<<<<<<<<<<<<<<+,   ",
"      >=<<<<<<<<<<<<<<<<<<<<<<<<<<<<<<<<<<<<<<<<<<<<<<<<<<=>    ",
"      X.<<<<<<<<<<<<<<<<<<<<<<<<<<<<<<<<<<<<<<<<<<<<<<<<<<.X    ",
"       @-<<<<<<<<<<<<<<<<<<<<<<<<<<<<<<<<<<<<<<<<<<<<<<<<-@     ",
"        *+<<<<<<<<<<<<<<<<<<<<<<<<<<<<<<<<<<<<<<<<<<<<<<+*      ",
"         ;+<<<<<<<<<<<<<<<<<<<<<<<<<<<<<<<<<<<<<<<<<<<<o;       ",
"          ;+<<<<<<<<<<<<<<<<<<<<<<<<<<<<<<<<<<<<<<<<<<+;        ",
"           ;+<<<<<<<<<<<<<<<<<<<<<<<<<<<<<<<<<<<<<<<<+;         ",
"            *-<<<<<<<<<<<<<<<<<<<<<<<<<<<<<<<<<<<<<<-*          ",
"             @&=<<<<<<<<<<<<<<<<<<<<<<<<<<<<<<<<<<=.@           ",
"              X>O<<<<<<<<<<<<<<<<<<<<<<<<<<<<<<<<O>X            ",
"                @&+<<<<<<<<<<<<<<<<<<<<<<<<<<<<+&@              ",
"                  ,&+<<<<<<<<<<<<<<<<<<<<<<<<+&*                ",
"                    ,:-o<<<<<<<<<<<<<<<<<<o-:,                  ",
"                      X*:.Oo=<<<<<<<<=oO.:*X                    ",
"                          $*>#&....&#>*$X                       "
};
