/* XPM */
static char *_869f8dd8a5740c7e8862ad2cb3e78f7cHAoVhgPRp23B4D0[] = {
/* columns rows colors chars-per-pixel */
"64 64 5 1 ",
"  c None",
". c #FECB00",
"X c #FFCB00",
"o c #FECC00",
"O c #FFCC00",
/* pixels */
"                             OOOOOO                             ",
"                        OOOOOOOOOOOOOOOO                        ",
"                     OOOOOOOOOOOOOOOOOOOOOO                     ",
"                   OOOOOOOOOOOOOOOOOOOOOOOOOO                   ",
"                 OOOOOOOOOOOOOOOOOOOOOOOOOOOOOO                 ",
"               OOOOOOOOOOOOOOOOOOOOOOOOOOOOOOOOOO               ",
"              OOOOOOOOOOOOOOOOOOOOOOOOOOOOOOOOOOOO              ",
"            OOOOOOOOOOOOOOOOOOOOOOOOOOOOOOOOOOOOOOO             ",
"           XOOOOOOOOOOOOOOOOOOOOOOOOOOOOOOOOOOOOOOOO            ",
"          OOOOOOOOOOOOOOOOOOOOOOOOOOOOOOOOOOOOOOOOOOOO          ",
"         OOOOOXOOOOOOOOOOOOOOOOOOOOOOOOOOOOOOOOOOOOOOOO         ",
"        OOOOOOOOOOOOOOOOOOOOOOOOOOOOOOOOOOOOOOOOOOOOOOO         ",
"        OOOOOOOOOOOOOOOOOOOOOOOOOOOOOOOOOOOOOOOOOOOOOOOO        ",
"       OOOOOOOOOOOOOOOOOOOOOOOOOOOOOOOOOOOOOOOOOOOOOOOOOO       ",
"      OOOOOOOOOOOOOOOOOOOOOOOOOOOOOOOOOOOOOOOOOOOOOOOOOOOO      ",
"      OOOOOOOOOOOOOOOOOOOOOOOOOOOOOOOOOOOOOOOOOOOOOOOOOOOO      ",
"     OOOOOOOOOOOOOOOOOOOOOOOOOOOOOOOOOOOOOOOOOOOOOOOOOOOOOO     ",
"    XOOOOOOOOOOOOOOOOOOOOOOOOOOOOOOOOOOOOOOOOOOOOOOOOOOOOOO     ",
"    OOOOOOOOOOOOOOOOOOOOOOOOOOOOOOOOOOOOOOOOOOOOOOOOOOOOOOOO    ",
"   OOOOOOOOOOOOOOOOOOOOOOOOOOOOOOOOOOXOOOOOOOOOOOOOOOOOOOOOO    ",
"   OOOOOOOOOOOOOOOOOOOOOOOOOOOOOOOOOOOOOOOOOOOOOOOOOOOOOOOOOO   ",
"   OOOOOOOOOOOOOOOOOOOOOOOOOOOOOOOOOOOOOOOOOOOOOOOOOOOOOOOOOO   ",
"  OOOOOOOOOOOOOOOOOOOOOOOOOOOOOOOOOOOXOOOOOOOOOOXOOOOOOOOOOOOO  ",
"  OOXOOOOOOOOOOOOOOOOOOOOOOOOOOOOOOOOXOOOOOOOOOOOOOOOOOOOOOOOO  ",
"  OOXOOOOOOOOOOOOOOOOOOOOOOOOOOOOOOOOOOOOOOOOOOOOOOOOOOOOOOOOO  ",
" OOOXOOOOOOOOOOOOOOOOOOOOOOOOOOOOOOOOOOOOOOOOOOOOOOOOOOOOOOOOO  ",
" OOOOOOOOOOOOOOOOOOOOOOOOOOOOOOOOOOOOOOOOOOOOOOOOOOOOOOOOOOOOOO ",
" OOOOOOOOOOOXOOOOOOOOOOOOOOOOOOXOOOOOOOOOOOOOOOOOOOOOOOOOOOOOOO ",
" OOOOOOOOOOOOOOOOOOOOOOOOOOOOOOOOOOOOOOOOOOOOOOOXOOOOOOOOOOOOOO ",
" OOOOOOOOOOOOOOOOOOOOOOOOOOOOOOOOOOOOOOOOOOOOOOOXXOOOOOOOOOOOOO ",
" XOOOOOOOOOOOOOOOOOOOOOOOOOOOOOOOOOOOOOOOOOOOOOOOOOOOOOOOOOOOOO ",
"OOOOOOOOOOOOOOOOOOOOOXOOOOXOOOOOOOOOOOOOOOOOOOOOOOOOOOOOOOOOOOO ",
"OOOOOOOOOOOOOOOOOOOOOOOOOOOOOOOOOOOOOOOOOOOOOOOOOOOOOOOOOOOOOOO ",
"XXOOOOOOOOOOXOOOOOOOOOOOOOOOOOOXOOOOOOOOOOOOOOOOOOOOOOOOOOOOOOO ",
"OOXOOOOOOOOOOOOOOOOOOOOOOOOOOOOOOOOOOOOOOOOOOOOOOOOOOOOOOOOOOOO ",
"OOOOOOOOOOOOOOOOOOOOOOOOOOOOOOO  OOOOOOOOOOOOOOOOOOOOOOOOOXOOOO ",
" OOOOOOOOOOOOOOOOOOOOOOOOOOOOOO  OOOOOOOOOOOOOOOOOOOOOOOOOOOOOO ",
" XOOOOOOOOOOOOOOOOOOOOOOOOOOOO    OOOOOOOOOOOOOOOOOOOOOOOOOOOOO ",
" OOOOOOOOOOOOOOOOOOOOOOOOOOOOO    OOOOOOOOOOOOOOOOOOOOOOOOOOOOO ",
" OOOOOOOOOOOOOOOOOOOOOOOOOOOO      OOOOOOOOOOOOOOOOOOOOOOOOOOOO ",
" OOXOOOOOOOOOOOOOOOOOOOOOOOOO      OOOOOOOOOOOOOOOOOOOOOOOOOOOO ",
" XOOOOOOOOOOOOOOOOOOOOOOOOOO        OOOOOOOOOOOOOOOOOOOOOOOOOO  ",
"  OOOOOOOOOOOOOOOOOOOOOOOOOO        OOOOOOOOOOOOOOOOOOOOOOOOOO  ",
"  OOXOOOOOOOOOOOOOOOOOOOOOO          OOOOOOOOOOOOOOOOOOOOOOOOO  ",
"  OOOOOOOOOOXOOOOOOOOOOOOOO          OOOOOOOOOOOOOOOOOOOOOOOOO  ",
"   OOOOOOOOOOOOOOOOOOOOOOO            OOOOOOOOOOOOOOOOOOOOOOO   ",
"   OOOOOOOOOOOOOOOOOOOOOOO            OOOOOOOOOOOOOOOOOOOOOOO   ",
"   OOXOOOOOOOOOOOOOOOOOOO             OOOOOOOOOOOOOOOOOOOOOO    ",
"    OOOOOOOOOOOOOOOOOOOOO              OOOOOOOOOOOOOOOOOOOOO    ",
"    OXOOOOOOOOOOOOOOOOOO               OOOOOOOOOOOOOOOOOOOOO    ",
"     OOOOOOOOOOOOOOOOOOO                OOOOOOOOOOOOOOOOOOO     ",
"     OOOOOOOOOOOXOOOOOO                 OOOOOOOOOOOOOOOOOO      ",
"      XOOOOOOOOOXOOOOOO                  OOOOOOXXOOOOOOOOO      ",
"       OOOOOOOOOOOOOOO                   OOOOOOOOOOOOOOXO       ",
"       OOOOOOOOOOOOOOO                    OOOOOOOOOOOOOO        ",
"        OOOOOOOOXXOOO                     OOOOOOOOOOOOOO        ",
"         OOOOOOOOOOOO                      OOOOOOXOOOOO         ",
"          OOOOOOOOOOO                      OOOOOOOOOOO          ",
"           OOOOOOOOO                        OOOOOOOOO           ",
"            OOOOOOOO                        OOOOOOOO            ",
"              OOOOO                          OOOOO              ",
"               OOOO                          OOOO               ",
"                 O                            O                 ",
"                                                                "
};
