/* XPM */
static char *e03073c8196343d79d16cb230de3e0bdIMpfeAjjChMSi9Ro[] = {
/* columns rows colors chars-per-pixel */
"64 64 5 1 ",
"  c None",
". c #FECB00",
"X c #FFCB00",
"o c #FECC00",
"O c #FFCC00",
/* pixels */
"                           OOOXOO                               ",
"                      XOOOXOOOXOOXOOOOO                         ",
"                   OOOOOOOOOOXOOOOOOOOOOOO                      ",
"                OOOOOOOXOOOOOOOOOOOOOOOOOOOOO                   ",
"              OOOOOOXOOOOOOOOOOOOOOOOOXXXOOOOOX                 ",
"            OOXOXOOOOOOOOOOOOOOOOOOOOOOOOOOOOOOO                ",
"           XOOOOOOOOOOOOOOOOOOOOOOOOOOOOOOOOOOOOOO              ",
"         OOOOOOOOOOOOOOOOOOOOOOOOOOOOOOOOOOOOOOOOOO             ",
"        OOOOOOOOOOOOOOOOOOOOOOOOOOOOOOOOOOOOOOOOOOOOO           ",
"       OOOOOOOOOOOOOOOOOOOOOOOOOOOOOOOOOOOOOOOOOOOOOOO          ",
"      OOOOOOOOOOOOOOOOOOOOOOOOOOOOOOOOOOOOOOOOOOOOOOOOO         ",
"     OOOOOOOOOOOOOOOOOOOOOOOOOOOOOOOOOOOOOOOOOOOOOOOOOOX        ",
"    OOOOOOOOOOOOOOOXOOOOOOOOOOXOOOOOXOOOOOOOOOOOOOOOOOOOO       ",
"    OOOOOOOOOOOOOOOOOOOOOOOOOOOOOOOOOOOOOOOOOOOOOOOOOOOOO       ",
"   OOOOOOOOOOOOOOOOOOOOOOOOOOOOOOOOOOOOOOOOOOOOOOOOOOXOOOO      ",
"  OOOOOOOOOOOOOOOOOOOOOOOOOOOOOOOOOOOOOOOOOOOOOOOOOOOOOOOOO     ",
"  OOOOOOXOOXXOOOOOOOOOOOOOOOOOOOOOOOOOOOOOOOOOOOOOOOOOOOOOO     ",
" OOOOOOOXOOOOOOOOOOOOOOOOOOOOOOOOOOOOOOOOOOOOOOOOOOOOOOOOOOO    ",
"  OOOOOOOOOOOOOOOOOOOOOOOOOOOOOOOOOOOOOOOOOOOOOOOOOOOOOOOOOO    ",
"    OOOOOOOOOOOOOOOOOOOOOOOOOOOOOOOOOOOOOOOOOOOOOOOOOOOOOOOOO   ",
"      OOOOOOOOOOOOOOOOOOOOOOOOOOOOOOOOOOOOOOOOOOOOOOOOOOOOOOO   ",
"         OOOOOOOOOOOOOOOOOOOOOOOXOOOOOOOOOOOOOOOOOOOOOOOOOOOOO  ",
"           OOOOOOOOOOOOOOOOOOOOOOOOOOOOOOOOOOOOOOOOOOOOOOOOOOO  ",
"             OOOOOOOOOOOOOOOOOOOOOOOOOOOOOOOOOOOOOOOOOOOOOOOOO  ",
"               OOOOOOOOOOOOOOOOOOOOOOOOOOOOOOOOOOOOOOOOOOOOOOOO ",
"                 OOOOOOOOOOOOOOOOOOOOOOOOOOOOOOOOOOOOOOOOOOOOOO ",
"                   OOOOOOOOOOOOOXOOOOOOOOOOOOOOOOOOOOOOOOOOOOOO ",
"                     OOOOOOOOOOOOOOOOOOOOOOOOOOOOOOOOOOOOOOOOOO ",
"                       OOOOOOOOOOOOOOOOOOOOOOOOOOOOOOOOOOOOOOOO ",
"                         OOOOOOOOOOOOOOOOOOOOOOOOOOOOOOOOOOOOOOO",
"                           OOOOOOOOOOOOOOOOOOOOOOOOOOOOOOOOOOOOO",
"                             OXOOOOOXOOOOOOOOOOOOOOOOOOOOOOOOOOO",
"                             OOOOOOOOOOOOOOOOOOOOOOOOOOOOOOOOOOO",
"                           OOOOOOOOOOOOOOOOOOOOOOOOOOOOOOOOOOOOO",
"                         OOOOOOOOOOOOOOOOOOOOOOOOOOOOOOOOOOOOOOO",
"                       OOOOOOOOOOOOOOOOOOOOOOOOOOOOOOOOOOOOOOOO ",
"                     OOOOOOOOOOOOOOOOOOOOOOOOOOOOOOOOOOOOOOOOOO ",
"                   OOOOOOOOOOOOOOOOOOOOOXXOOXOOOOOOOOOOOOOOOOOO ",
"                OOOOOOOOOOOOOOOOOOOOOOOOOOOOOOOOOOOOOOOOOOOOOOO ",
"              OOOOOOOOOOOOOOOOOOOOOOOOOOOOOOOOOOOOOOOOOOOOOOOOO ",
"            OOOOOOOOOOOOOOOOOOOOOOOOOOOOOOOOOOOOOOOOOOOOOOOOOO  ",
"          OOOOOOOOOOOOOOOOOOOOOOOOOOOOOOOOOOOOOOOOOOOOOOOOOOOO  ",
"        OOOOOOOOOOOOOOOOOOOOOOOOOOOOOOOOOOOOOOOOOOOOOOOOOOOOOO  ",
"      OOOOOOOOOOOOOOOOOOOOOOOOOOOOOOOOOOOOOOOOOOOOOOOOOOOOOOO   ",
"    OOOOOOOOOOOOOOOOOOOOOOOOOOOOOOOOOOOOOOOOOOOOOOOOOOOOOOOOO   ",
"  OOOOOOOOOOOOOOOOOOOOOOOOOOOOOOOOOOOOOOOOOOOOOOOOOOOOOOOOOO    ",
" OOOOOOOOOOOOOOOOOOOOOOOOOOOOOOOOOOOOOOOOOOOOOOOOOOOOOOOOOOO    ",
"  OOOOOOOOOXOOOOOOOOOOOOOOOOOOOOOOOOOOOOOOOOOOOOOOOOOOOOOOO     ",
"  OOOOOOOOOXOOOOOOOOOOOOOOOOOOOOOOXXOOOOOXOOOOOOOOOOOOOOOOO     ",
"   OOOOXOOOOOOOOOOOOOOOOOOOOOOOOOOXOOOOOOOOOOOOOOOOOOOOOOO      ",
"    OOOOOOOOOOOOOOOOOOOOOOOOOOOOOOOOOOOOOOOOOOOOOOOOOOOOO       ",
"    OOOOOOOOOOOOOOOOOOOOOOOOOOOOOOOOOOOOOOOOOOOOOOOOOOOO        ",
"     OOOOOOOOOOOOOOOOOOOOOOOOOOOOOOOOOOOOOOOOOOOOOOOOOO         ",
"      OOOOOOOOOOOOOOOOOOOOOOOOOOOOOOOOOOOOOOOOOOOOOOOOO         ",
"       OOOOOOOOOOOOOOOOOOOOOOOOOOOOOOOOOOOOOOOOOOOOOOO          ",
"        OOXOOOOOOOOOOOOOOOOOOOOOOOOOOOOOOOOOOOOOOOOO            ",
"          OOOOOOOOOOOOOOOOOOOOOOOOOOOOOOOOOOOOOOOOO             ",
"           OOOOOOOOOOOOOOOOOOOOOOOOOOOOOOOOOOOOOOO              ",
"             OOOOOOOOOOOOOOOXOOOOOOOOOOOOOOOOOOO                ",
"              OOOOOOOOOOOOOOOOOOOOOOOOOOOOOOOO                  ",
"                 OOOOOOOOOOOOOOOOOOOOOOOOOOO                    ",
"                   OOOOOOOOOOOOOOOOOOOOOOO                      ",
"                       OOOOOOOOOOOOOOO                          ",
"                                                                "
};
