/* XPM */
static char *_6b26c31f65643ebdb022ebb60f19a40V2LdO92GU3makdri[] = {
/* columns rows colors chars-per-pixel */
"32 32 4 1 ",
"  c None",
". c #D82800",
"X c #887000",
"o c #FC9838",
/* pixels */
"          ............          ",
"          ............          ",
"        ....................    ",
"        ....................    ",
"        XXXXXXXXooooXXoo        ",
"        XXXXXXXXooooXXoo        ",
"      XXXXooXXooooooXXoooooo    ",
"      XXXXooXXooooooXXoooooo    ",
"      XXXXooXXXXooooooXXoooooo  ",
"      XXXXooXXXXooooooXXoooooo  ",
"      XXXXXXooooooooXXXXXXXX    ",
"      XXXXXXooooooooXXXXXXXX    ",
"          oooooooooooooooo      ",
"          oooooooooooooooo      ",
"        XXXXXX..XXXXXX          ",
"        XXXXXX..XXXXXX          ",
"      XXXXXXXX..XXXX..XXXXXX    ",
"      XXXXXXXX..XXXX..XXXXXX    ",
"    XXXXXXXXXX........XXXXXXXX  ",
"    XXXXXXXXXX........XXXXXXXX  ",
"    ooooooXX..oo....oo..XXoooo  ",
"    ooooooXX..oo....oo..XXoooo  ",
"    oooooooo............oooooo  ",
"    oooooooo............oooooo  ",
"    oooooo................oooo  ",
"    oooooo................oooo  ",
"        ........  ........      ",
"        ........  ........      ",
"      XXXXXXXX      XXXXXXXX    ",
"      XXXXXXXX      XXXXXXXX    ",
"    XXXXXXXXXX      XXXXXXXXXX  ",
"    XXXXXXXXXX      XXXXXXXXXX  "
};
