/* XPM */
static char *_944f2a6cbe24d4fdf130bcd5997a4803ojjIPpmhQTAj4BC[] = {
/* columns rows colors chars-per-pixel */
"32 32 228 2 ",
"   c #001D1F",
".  c #1C380F",
"X  c #092B17",
"o  c #1E2B1A",
"O  c #1F2B15",
"+  c #003611",
"@  c #003A12",
"#  c #01351E",
"$  c #183016",
"%  c #1C3A1D",
"&  c #183B1A",
"*  c #2C330E",
"=  c #36350F",
"-  c #343604",
";  c #222B16",
":  c #222C1D",
">  c #2C2C19",
",  c #2E2818",
"<  c #3C2B1B",
"1  c #3C2718",
"2  c #243313",
"3  c #2C3110",
"4  c #24351A",
"5  c #213A1D",
"6  c #323311",
"7  c #3A3511",
"8  c #343518",
"9  c #232D0A",
"0  c #001D24",
"q  c #001E29",
"w  c #002025",
"e  c #082924",
"r  c #152C23",
"t  c #1C2823",
"y  c #01362D",
"u  c #063621",
"i  c #103E24",
"p  c #1A3628",
"a  c #092F30",
"s  c #002E3A",
"d  c #1F2D36",
"f  c #1C2B3E",
"g  c #182932",
"h  c #013531",
"j  c #0F3130",
"k  c #00323E",
"l  c #0F313A",
"z  c #063C33",
"x  c #13323D",
"c  c #1A303E",
"v  c #222D23",
"b  c #2B2D24",
"n  c #2A2F28",
"m  c #232321",
"M  c #27372D",
"N  c #2A372E",
"B  c #23392E",
"V  c #253825",
"C  c #343624",
"Z  c #393525",
"A  c #232C34",
"S  c #292B33",
"D  c #262734",
"F  c #293B32",
"G  c #263137",
"H  c #3B292D",
"J  c #49261B",
"K  c #422B1D",
"L  c #43221B",
"P  c #4B2C0B",
"I  c #7D2601",
"U  c #7A2800",
"Y  c #793400",
"T  c #492A22",
"R  c #492F3A",
"E  c #4A2A35",
"W  c #5C2938",
"Q  c #483137",
"!  c #45333A",
"~  c #4A313C",
"^  c #433127",
"/  c #7A2926",
"(  c #19402E",
")  c #1B4231",
"_  c #1E2A40",
"`  c #162B40",
"'  c #183241",
"]  c #262D41",
"[  c #8D1C03",
"{  c #861E05",
"}  c #941C06",
"|  c #991C04",
" . c #961706",
".. c #8E151E",
"X. c #9C1915",
"o. c #91141F",
"O. c #951E18",
"+. c #A71B00",
"@. c #AA1C01",
"#. c #A40F11",
"$. c #A31615",
"%. c #A71518",
"&. c #A61A18",
"*. c #BB191A",
"=. c #B8151A",
"-. c #812502",
";. c #862A00",
":. c #8E2F06",
">. c #82250B",
",. c #8A2607",
"<. c #932500",
"1. c #9C2402",
"2. c #952901",
"3. c #9B2D00",
"4. c #9C2B09",
"5. c #9D250D",
"6. c #8D3306",
"7. c #8E3209",
"8. c #923107",
"9. c #91310A",
"0. c #842D19",
"q. c #8E2C1D",
"w. c #932B1C",
"e. c #982916",
"r. c #873118",
"t. c #A32505",
"y. c #A2270A",
"u. c #A32C0A",
"i. c #AA2B0D",
"p. c #A92706",
"a. c #B22605",
"s. c #B4260B",
"d. c #BA2D0B",
"f. c #B72609",
"g. c #AC3D05",
"h. c #AD3E09",
"j. c #A9310F",
"k. c #BA3E08",
"l. c #BB3407",
"z. c #A32416",
"x. c #AE2414",
"c. c #A32912",
"v. c #AC2C12",
"b. c #A62519",
"n. c #B12712",
"m. c #B92A14",
"M. c #B32C1A",
"N. c #BC2D1B",
"B. c #B02810",
"V. c #A63110",
"C. c #B43113",
"Z. c #B83117",
"A. c #BC391D",
"S. c #B63519",
"D. c #8C1D24",
"F. c #941520",
"G. c #911E25",
"H. c #941A26",
"J. c #AD1424",
"K. c #A61B26",
"L. c #B51222",
"P. c #B50E22",
"I. c #9F262B",
"U. c #A4252A",
"Y. c #A92527",
"T. c #B82A28",
"R. c #B7322A",
"E. c #C21C0A",
"W. c #C2191D",
"Q. c #C8181A",
"!. c #C41319",
"~. c #D31C1B",
"^. c #DC1D1E",
"/. c #D9161A",
"(. c #C4210C",
"). c #CC260B",
"_. c #C4290A",
"`. c #D3280A",
"'. c #DF2C0C",
"]. c #CF2B10",
"[. c #C9261C",
"{. c #C42D18",
"}. c #D72114",
"|. c #DD2512",
" X c #D72918",
".X c #C63011",
"XX c #C83214",
"oX c #C2361C",
"OX c #CA3318",
"+X c #E22414",
"@X c #E5231C",
"#X c #E9221D",
"$X c #F9291F",
"%X c #C11125",
"&X c #D61D21",
"*X c #DB1C21",
"=X c #E0192E",
"-X c #C22723",
";X c #C32924",
":X c #C8292A",
">X c #C92526",
",X c #D72122",
"<X c #D1222F",
"1X c #D42D2F",
"2X c #D92E2F",
"3X c #DA252E",
"4X c #C63923",
"5X c #CE3828",
"6X c #D43023",
"7X c #D13921",
"8X c #D4302F",
"9X c #D32333",
"0X c #D22D33",
"qX c #D92A34",
"wX c #D92639",
"eX c #CE3031",
"rX c #D93130",
"tX c #EC2421",
"yX c #E1282E",
"uX c #EA292E",
"iX c #FF2A24",
"pX c #F1292E",
"aX c #F02922",
"sX c #F03224",
"dX c #EC2730",
"fX c #E32935",
"gX c #F02B34",
"hX c #B7410A",
/* pixels */
"A e H m j u ~ u x + > D X E p h f @ 1 g   H v h ` + L g 0 ! v h ",
"| -.y.c.0.- M.<.X.U 3.0.= M.2.[ X.I 3.0.* M.2.[ X.I 3.q.6 N.2.[ ",
"[.v.b.&.D.7 R.6XwXd.y./ 8 R.{.&X9X(.9.D.% :XZ.*X9X(.9.G.V :XS.,X",
" X{.5.=.o.P T.aXqX+X@.D.T T.].tXqX@Xp.F.T :XXXtX0X+X1.F.K :XOXtX",
"X n # S l z j 1 h ^ : ] ' F % : h Z > ' k ) 4 : h C ; x k ) 4 : ",
"P n.;.p.e.r.,.| 3 m.1.*.O.y.;.>.3 v.@.b.%.7.<.I 3 j.+.z.$.6.1.,.",
"p wXx.E.x.>XY.w.B qXa.*X*.s.5.I.M 0Xs.*XW.i.c.I.B 8Xa.~.*.s.v.Y.",
"+ fXOX'._.tXx.>.r yXl.sX6Xd.y.K.r dXh.iX4X_.4.J.r uXg.$XoX).p.L.",
"f @ J d w ! n h c @ J A 0 Q b y c @ J A 0 Q b y x X < S 0 W i j ",
"$.-.3.q.6 N.3.} X.-.3.w.= N.2.[ X.-.3.w.= N.2.[ $.I t.w.7 N.1.[ ",
"9X(.:.D.% :XZ.*X<X(.8.G.5 :XC.~.<X(.8.G.5 :XC.~.=Xu.p.D.4 R.}.[.",
"0X+X1.o.< ;XXXtX1X+Xt.F.K ;X.X@X1X+Xt.F.K ;X.X@X3X].@.F.K T.|.@X",
"h C ; x s ) 4 v y Z ; x k ) 4 o y Z ; x k ) 4 o y T $ x k F & , ",
"2 V.+.b.%.7.<.>.6 i.@.z.$.6.<.-.6 i.@.z.$.6.<.-.. (.<.z.$.p.Y } ",
"p eXa.&XW.B.c.U.N 2Xa.~.*.i.c.U.N 2Xa.~.*.i.c.U.B 2Xp.~.*.s.c.Y.",
"e yXh.iX4X).y.J.r dXg.$XA._.4.J.r dXg.$XA._.4.J.t eXl.$XoXd.E.J.",
"f @ J d w ! n h c @ J A 0 Q b y c @ J A 0 Q b y x X < S 0 W i j ",
"$.-.3.q.6 N.3.} X.-.3.w.= N.2.[ X.-.3.w.= N.2.[ $.I t.w.7 N.1.[ ",
"9X(.:.D.% :XZ.*X<X(.8.G.5 :XC.~.<X(.8.G.5 :XC.~.=Xu.p.D.4 R.}.[.",
"0X+X1.o.< ;XXXtX1X+Xt.F.K ;X.X@X1X+Xt.F.K ;X.X@X3X].@.F.K T.|.@X",
"h C ; x s ) 4 v y Z ; x k ) 4 o y Z ; x k ) 4 o y T $ x k F & , ",
"2 V.+.b.%.7.<.>.6 i.@.z.$.6.<.-.6 i.@.z.$.6.<.-.. (.<.z.$.y.Y } ",
"p eXa.&XW.B.c.U.N 2Xa.~.*.i.c.U.N 2Xa.~.*.i.c.U.B 2Xp.~.*.s.c.Y.",
"e yXh.iX4X).y.J.r dXg.$XA._.4.J.r dXg.$XA._.4.J.t eXl.$XoXd.E.J.",
"] + J G w Q b z _ @ J d 0 R b a _ @ J d 0 R b a f + J S q ~ n h ",
"$.-.3.q.= m.<.} X.-.3.q.6 N.1. .X.-.3.q.6 N.1. .X.-.3.w.7 N.2.[ ",
"9XE.:.D.% ;XC. X9X(.7.D.% :XZ.^.9X(.7.D.% :XZ.^.9X(.9.G.V :XS.,X",
"0X|.1...< ;XXXtX0X|.1...< -X.X#X0X|.1...< -X.X#X0X|.1.o.< ;XXXtX",
"y C O l s ) 4 : y C ; l s ( 2 o y C ; l s ( 2 o y C O l s ) 4 : ",
"9 u.+.&.#.8.<.{ * i.@.z.$.6.<.-.* i.@.z.$.6.<.-.* j.+.z.$.6.1.,.",
"p 2Xf./.!.s.x.K.M 2Xf.^.Q.s.i.Y.M 2Xf.^.Q.s.i.Y.N rXf.^.W.s.B.T.",
"e gXhXiX7X|.i.P.r pXk.iX7X`.p.L.r pXk.iX7X`.p.L.r pXhXiX7X`.s.%X"
};
