/* XPM */
static char *c10569dd017043c5e5d681cd3813137bLzZ4kRJqfucHTljk[] = {
/* columns rows colors chars-per-pixel */
"64 64 230 2 ",
"   c #2E1E0F",
".  c #142D0F",
"X  c #03390D",
"o  c #002C17",
"O  c #002D1A",
"+  c #082416",
"@  c #1E2214",
"#  c #152E11",
"$  c #1F2718",
"%  c #1F2B1E",
"&  c #1C2C13",
"*  c #033614",
"=  c #0B3316",
"-  c #033912",
";  c #03351B",
":  c #0B3519",
">  c #013C1D",
",  c #0D3A1D",
"<  c #193D14",
"1  c #1C371D",
"2  c #12391B",
"3  c #183B1D",
"4  c #173515",
"5  c #27200E",
"6  c #2B2412",
"7  c #222B1A",
"8  c #282F1D",
"9  c #293019",
"0  c #31301C",
"q  c #0D1C26",
"w  c #101E27",
"e  c #101E2B",
"r  c #301F29",
"t  c #3B1B20",
"y  c #042625",
"u  c #042926",
"i  c #042629",
"p  c #042B2B",
"a  c #0B2B2B",
"s  c #082626",
"d  c #1D2625",
"f  c #112A27",
"g  c #1F2F27",
"h  c #1D2529",
"j  c #18292D",
"k  c #003220",
"l  c #003C22",
"z  c #0F3B20",
"x  c #00342A",
"c  c #003A2C",
"v  c #09302F",
"b  c #1C3725",
"n  c #032535",
"m  c #052D32",
"M  c #0C2F30",
"N  c #042639",
"B  c #062B3D",
"V  c #102E30",
"C  c #1B273B",
"Z  c #003135",
"A  c #003931",
"S  c #003538",
"D  c #093131",
"F  c #262022",
"G  c #2A2326",
"H  c #222F25",
"J  c #282E22",
"K  c #222F28",
"L  c #28252A",
"P  c #32212C",
"I  c #302A2E",
"U  c #233B22",
"Y  c #233029",
"T  c #2C3322",
"R  c #27213D",
"E  c #28223C",
"W  c #322932",
"Q  c #00410E",
"!  c #004714",
"~  c #004A16",
"^  c #1D411B",
"/  c #204017",
"(  c #004021",
")  c #004129",
"_  c #0B4326",
"`  c #1F4023",
"'  c #224123",
"]  c #241F44",
"[  c #292140",
"{  c #272441",
"}  c #9B1D07",
"|  c #961D0D",
" . c #9C1E0B",
".. c #9D1404",
"X. c #9E1714",
"o. c #941B10",
"O. c #9E1914",
"+. c #9F1918",
"@. c #AF0D08",
"#. c #B00E09",
"$. c #A21D01",
"%. c #AB1D04",
"&. c #A41E0C",
"*. c #AB1D0B",
"=. c #AD140D",
"-. c #B21D07",
";. c #B3110C",
":. c #B71907",
">. c #AA0F14",
",. c #B20C16",
"<. c #A41616",
"1. c #AC1116",
"2. c #A51817",
"3. c #A7161A",
"4. c #AC171C",
"5. c #A51D1C",
"6. c #AB1C1D",
"7. c #BE1F11",
"8. c #BB1E19",
"9. c #B1181A",
"0. c #9E2D01",
"q. c #9D220C",
"w. c #9C280F",
"e. c #9B2313",
"r. c #9F2A15",
"t. c #9D271B",
"y. c #9F310B",
"u. c #A32100",
"i. c #AF2501",
"p. c #A3230C",
"a. c #AA220E",
"s. c #A42A0D",
"d. c #AA2A0E",
"f. c #A52B02",
"g. c #B22405",
"h. c #B4230D",
"j. c #B8250D",
"k. c #B9290D",
"l. c #B72B04",
"z. c #A23204",
"x. c #A52411",
"c. c #AC2513",
"v. c #A42913",
"b. c #AD2A13",
"n. c #A0211B",
"m. c #AE291C",
"M. c #A7291B",
"N. c #B42313",
"B. c #BB2511",
"V. c #B22915",
"C. c #BB2B13",
"Z. c #B0261A",
"A. c #BE2319",
"S. c #B12919",
"D. c #BB2818",
"F. c #AA311C",
"G. c #B4321A",
"H. c #9D1E25",
"J. c #AB1D21",
"K. c #A11927",
"L. c #B11721",
"P. c #B01D23",
"I. c #AC2126",
"U. c #B62426",
"Y. c #BB2F20",
"T. c #B72528",
"R. c #BE2128",
"E. c #BD2A2C",
"W. c #B63322",
"Q. c #B93322",
"!. c #C21C19",
"~. c #C02414",
"^. c #C5291C",
"/. c #C72816",
"(. c #DB2614",
"). c #DB2C15",
"_. c #D12718",
"`. c #D12D1B",
"'. c #DD2B1B",
"]. c #D12413",
"[. c #CD311B",
"{. c #D7301D",
"}. c #DC341D",
"|. c #DD391D",
" X c #DA3016",
".X c #C9220F",
"XX c #E12613",
"oX c #E32B1C",
"OX c #E92D1B",
"+X c #E72717",
"@X c #F52C1D",
"#X c #FD2D1E",
"$X c #F82919",
"%X c #E43516",
"&X c #E2331A",
"*X c #EB311E",
"=X c #E5381C",
"-X c #EF3D1F",
";X c #F5381C",
":X c #EA370C",
">X c #CC2626",
",X c #CD2826",
"<X c #CE2928",
"1X c #C32F2D",
"2X c #D12D21",
"3X c #D32B2B",
"4X c #DA2A2E",
"5X c #D82726",
"6X c #CF352C",
"7X c #D73125",
"8X c #DC3221",
"9X c #DF3922",
"0X c #D3352E",
"qX c #E72D20",
"wX c #EB2D21",
"eX c #E32B2E",
"rX c #E3262A",
"tX c #F62D22",
"yX c #FE2C22",
"uX c #E43523",
"iX c #EA3423",
"pX c #EB3924",
"aX c #E53528",
"sX c #E43C27",
"dX c #FF3122",
"fX c #F13E27",
"gX c #F23F28",
"hX c #F83A27",
"jX c #E22D32",
"kX c #ED422E",
/* pixels */
"i p p p u u u p n + B ] y x ] ; i p p p u u u p L ; f i n C p ( i p p p u y u p L ; f i n C p ( i p p p u u u p L ; f i n C p ( ",
", z z z , , , , _ < ( A 2 _ f X , , z z , , , , ) ~ ` b ; g : - , z z z , , , , ) ~ ` b ; g : - , z z z , , , , ) ~ ` b ; g : - ",
"5.5.5.5.3.6.3.3.H.=.6 t R.1XK. .5.5.5.5.3.6.3.3.G   R.<XO.9.L.,.5.5.5.5.3.6.3.3.G   R.5XO.9.L.,.5.5.5.5.3.6.3.3.G   R.5XO.9.L.,.",
"b.c.c.c.S.S.S.c.M.N.X : sXkXM.k.b.c.c.c.S.S.S.c.A & 0XhXf.V.Q.!.b.c.c.c.S.S.S.c.A & 0XhXf.V.Q.!.b.c.c.c.S.S.S.c.A & 0XhXf.V.Q.!.",
"%.%.%.*.*.*.*.*.x.!.- ; wX$X..:.%.%.%.*.*.*.*.*.S 7 eXdXu.$.a.#.%.%.%.*.*.*.*.*.S 7 eXdXu.$.a.#.%.%.%.*.*.*.*.*.S 7 eXdXu.$.a.#.",
"j.B.V.V.x.x.x.x. .Z.l x qX$X*..Xj.B.V.V.x.x.x.x.Z % 3X@Xi.i.b.N.j.B.V.V.x.x.x.x.Z % 3X@Xi.i.b.N.j.B.V.V.x.x.x.x.Z % 3X@Xi.i.b.N.",
"oXuX8X2XA.N.c.Z.p.6.D j qX#X2XpXoXuX8X2XA.N.c.Z.y 8 3XyX).OX}.uXoXuX8X2XA.N.c.Z.y 8 3XyX).OX}.uXoXuX8X2XA.N.c.Z.y 8 3XyX).OX}.uX",
"&XuX9X[.h.&. .x.y.t.D h /.:X`.|.&XuX9X[.h.&. .x.o < Y.OX&X$XXX%X&XuX9X[.h.&. .x.o < Y.OX&X$XXX%X&XuX9X[.h.&. .x.o < Y.OX&X$XXX%X",
"r k d q N E y ( p p a a a a a a P ; d w n E u > p p M V a a a a P ; d w n E u > p p M V a a a a P ; d w n E u > u p a a a a a a ",
"l ~ ' 1 l H = X , , , , , 2 2 : l ! ' U ; H = X * ; : : = = = = l ! ' U ; H = X * ; : : = = = = l ! ' U ; H = X , , , , , , 2 2 ",
"F 6 U.>Xe.4.3.1.5.+.X.<.5.3.3.<.G 5 U.,X| 4.6.>.n.5.5.6.6.6.3.5.G 5 U.,X| 4.6.>.n.5.5.6.6.6.3.5.G 5 U.,X| 4.6.>.+.+.X.<.2.2.2.2.",
"x 4 6XpXz.d.S.A.b.v.x.c.b.S.m.c.c . 6XfX0.d.W.8.s.s.a.c.b.S.b.x.c . 6XfX0.d.W.8.s.s.a.c.b.S.b.x.c . 6XfX0.d.W.8.b.s.d.v.b.V.b.S.",
"Z 7 eX#Xu.$.p.;.a.%.%.*.a.c.x.&.S $ eX#X$.$.a.@.%.%.%.*.*.a.p.&.S $ eX#X$.$.a.@.%.%.%.*.*.a.p.&.S $ eX#X$.$.a.@.%.%.%.*.a.a.a.a.",
"m H 4X$Xg.g.c.B.B.j.N.c.c.x.e.e.Z % 4XyXi.g.b.N.C.C.C.D.S.v.v.r.Z % 4XyXi.g.b.N.C.C.C.D.S.v.v.r.Z % 4XyXi.g.b.N.j.j.h.c.a.p.e.r.",
"y T 3XyX}.wX'.aXoXqX8X`.~.N.c.Z.i 8 3XyX).qX8XaX(.'.'._.7.*.&.x.i 8 3XyX).qX8XaX(.'.'._.7.*.&.x.i 8 3XyX).qX8XaXoXoXuX`.~.N.c.m.",
"o ^ W.oX9XtX(.=XOXiXuX`.B.&. .q.O < W.OX}.tX).&XOXiXpX{.B.*.q.w.O < W.OX}.tX).&XOXiXpX{.B.*.q.w.O < W.OX}.tX).&XOX*XuX`.j.$.q.p.",
"p m M M a a a a P k h e n R p l p m M M a a a a P k h e n R p l p m M M a a a a P k h e n R p l p m M M a a a a P k h e N [ a l ",
"; ; : : : : = : c ! ' U ; K : - ; ; : : : : = : c ! ' U ; K : - ; ; : : : : = : c ! ' U ; K : - ; ; : : : : = : ) ! ' U k Y : - ",
"5.5.5.6.J.6.6.6.G 5 U.,Xo.4.J.>.5.5.5.J.J.6.6.6.G 5 U.,Xo.4.J.>.5.5.5.6.J.6.6.6.G 5 U.,Xo.4.J.>.5.5.5.6.J.6.6.6.G 6 T.<Xo.6.J.1.",
"p.p.p.p.c.x.x.&.c # 6XfX0.v.W.8.p.p.p.p.x.x.x.&.c # 6XfX0.v.W.8.p.p.p.p.x.x.x.&.c # 6XfX0.v.W.8.p.p.p.p.x.x.x.&.A # 0XfX0.b.W.8.",
"h.h.V.V.V.S.S.c.S $ eX#X$.$.a.@.h.h.V.V.V.S.S.c.S $ eX#X$.$.a.@.h.h.V.V.V.S.S.c.S $ eX#X$.$.a.@.h.h.V.V.V.S.S.c.S 7 eXdXu.$.a.#.",
"-.g.h.a.&. .| | Z % 4X@Xi.g.b.N.-.g.h.a.&. .| | Z % 4X@Xi.g.b.N.-.g.h.a.&. .| | Z % 4X@Xi.g.b.N.-.g.h.a.&. .| | Z 7 4XyXg.g.b.N.",
"qXiXaX7X^.N.Z.m.y 9 3XyX).OX}.uXqXiXaX7X^.N.Z.m.y 9 3XyX).OX}.uXqXiXaX7X^.N.Z.m.y 9 3XyX).OX}.uXqXiXaX7X^.N.Z.m.p 9 3XyX XOX8XaX",
"OX*XuX`.j.$.} q.o < W.OX|.@X).%XOX*XuX`.j.$.} q.o < W.OX|.@X).%XOX*XuX`.j.$.} q.o < W.OX|.@X).%XOX*XuX`.j.$.} q.O < Q.*X|.tX).%X",
"r k d q N E y ( p p M V a a a a P ; d w n E u > p p M V a a a a P ; d w n E u > p p M V a a a a P ; d w n E u > u p a a a a a a ",
"l ~ ' 1 l H = X * ; : : = = = = l ! ' U ; H = X * ; : : = = = = l ! ' U ; H = X * ; : : = = = = l ! ' U ; H = X , , , , , , 2 2 ",
"F 6 U.>Xe.4.3.1.n.5.5.6.6.6.6.5.G 5 U.,X| 4.6.>.n.5.5.6.6.6.3.5.G 5 U.,X| 4.6.>.n.5.5.6.6.6.3.5.G 5 U.,X| 4.6.>.+.+.X.<.2.2.2.2.",
"x 4 6XpXz.d.S.A.s.s.a.c.b.S.b.x.c . 6XfX0.d.W.8.s.s.a.c.b.S.b.x.c . 6XfX0.d.W.8.s.s.a.c.b.S.b.x.c . 6XfX0.d.W.8.b.s.d.v.b.V.b.S.",
"Z 7 eX#Xu.$.p.;.%.%.%.*.*.a.p.&.S $ eX#X$.$.a.@.%.%.%.*.*.a.p.&.S $ eX#X$.$.a.@.%.%.%.*.*.a.p.&.S $ eX#X$.$.a.@.%.%.%.*.a.a.a.a.",
"m H 4X$Xg.g.c.B.C.C.C.D.S.v.v.r.Z % 4XyXi.g.b.N.C.C.C.D.S.v.v.r.Z % 4XyXi.g.b.N.C.C.C.D.S.v.v.r.Z % 4XyXi.g.b.N.j.j.h.c.a.p.e.r.",
"y T 3XyX}.wX'.aX(.'.'._.7.*.&.x.i 8 3XyX).qX8XaX(.'.'._.7.*.&.x.i 8 3XyX).qX8XaX(.'.'._.7.*.&.x.i 8 3XyX).qX8XaXoXoXuX`.~.N.c.m.",
"o ^ W.oX9XtX(.=XOXiXpX{.B.*.q.w.O < W.OX}.tX).&XOXiXpX{.B.*.q.w.O < W.OX}.tX).&XOXiXpX{.B.*.q.r.O < W.OX}.tX).&XOX*XuX`.j.$.q.p.",
"p m M M a a a a P k h e n R p l p m M M a a a a P k h e n R p l p m M M a a a a P k h e n R p l p m M M a a a a P k h e N [ a l ",
"; ; : : : : = : c ! ' U ; K : - ; ; : : : : = : c ! ' U ; K : - ; ; : : : : = : c ! ' U ; K : - ; ; : : : : = : ) ! ' U k Y : - ",
"5.5.5.6.J.6.6.6.G 5 U.,Xo.4.J.>.5.5.5.6.J.6.6.6.G 5 U.,Xo.4.J.>.5.5.5.6.J.6.6.6.G 5 U.,Xo.4.J.>.5.5.5.6.J.6.6.6.G 6 T.<Xo.6.J.1.",
"p.p.p.p.x.x.x.&.c # 6XfX0.v.W.8.p.p.p.p.x.x.x.&.c # 6XfX0.v.W.8.p.p.p.p.x.x.x.&.c # 6XfX0.v.W.8.p.p.p.p.x.x.x.&.A # 0XfXz.b.W.8.",
"h.h.V.V.V.S.S.c.S $ eX#X$.$.a.@.h.h.V.V.V.S.S.c.S $ eX#X$.$.a.@.h.h.V.V.V.S.S.c.S $ eX#X$.$.a.@.h.h.V.V.V.S.S.c.S 7 eXdXu.$.a.#.",
"-.g.h.a.&. .| | Z % 4X@Xi.g.b.N.-.g.h.a.&. .| | Z % 4X@Xi.g.b.N.-.g.h.a.&. .| | Z % 4X@Xi.g.b.N.-.g.h.a.&. .| | Z 7 4XyXg.g.b.N.",
"qXiXaX7X^.N.Z.m.y 9 3XyX).OX}.uXqXiXaX7X^.N.Z.m.y 9 3XyX).OX}.uXqXiXaX7X^.N.Z.m.y 9 3XyX).OX}.uXqXiXaX7X^.N.Z.m.p 9 3XyX XOX8XaX",
"OX*XuX`.j.$.} q.o < W.OX|.@X).%XOX*XuX`.j.$.} q.o < W.OX|.@X).%XOX*XuX`.j.$.} q.o < W.OX|.@X).%XOX*XuX`.j.$.} q.O < Q.*X|.tX).%X",
"r k d q N E y ( p p M V a a a a P ; d w n E u > p p M V a a a a P ; d w n E u > p p M V a a a a P ; d w n E u > u p a a a a a a ",
"l ~ ' 1 l H = X * ; : : = = = = l ! ' U ; H = X * ; : : = = = = l ! ' U ; H = X * ; : : = = = = l ! ' U ; H = X , , , , , , 2 2 ",
"F 6 U.>Xe.4.3.1.n.5.5.6.6.6.3.5.G 5 U.,X| 4.6.>.n.5.5.6.6.6.3.5.G 5 U.,X| 4.6.>.n.5.5.6.6.6.3.5.G 5 U.,X| 4.6.>.+.+.X.<.2.2.2.2.",
"x 4 6XpXz.d.S.A.s.s.a.c.b.S.b.x.c . 6XfX0.d.W.8.s.s.a.c.b.S.b.x.c . 6XfX0.d.W.8.s.s.a.c.b.S.b.x.c . 6XfX0.d.W.8.b.s.d.v.b.V.b.S.",
"Z 7 eX#Xu.$.p.;.%.%.%.*.*.a.p.&.S $ eX#X$.$.a.@.%.%.%.*.*.a.p.&.S $ eX#X$.$.a.@.%.%.%.*.*.a.p.&.S $ eX#X$.$.a.@.%.%.%.*.a.a.a.a.",
"m H 4X$Xg.g.c.B.C.C.C.D.S.v.v.r.Z % 4XyXi.g.b.N.C.C.C.D.S.v.v.r.Z % 4XyXi.g.b.N.C.C.C.D.S.v.v.r.Z % 4XyXi.g.b.N.j.j.h.c.a.p.e.r.",
"y T 3XyX}.wX'.aX(.'.'._.7.*.&.x.i 8 3XyX).qX8XaX(.'.'._.7.*.&.x.i 8 3XyX).qX8XaX(.'.'._.7.*.&.x.i 8 3XyX).qX8XaXoXoXuX`.~.N.c.m.",
"o ^ W.oX9XtX(.=XOXiXpX{.B.*.q.w.O < W.OX}.tX).&XOXiXpX{.B.*.q.w.O < W.OX}.tX).&XOXiXpX{.B.*.q.w.O < W.OX}.tX).&XOX*XuX`.j.$.q.p.",
"p m M M a a a a P k h e n R p l p m M M a a a a P k h e n R p l p m M M a a a a P k h e n R p l p m M M a a a a P k h e N [ a l ",
"; ; : : : : = : c ! ' U ; K : - ; ; : : : : = : c ! ' U ; K : - ; ; : : : : : : c ! ' U ; K : - ; ; : : : : = : ) ! ' U k Y : - ",
"5.5.5.6.J.6.6.6.G 5 U.,Xo.4.J.>.5.5.5.6.J.6.6.6.G 5 U.,Xo.4.J.>.5.5.5.6.J.6.6.6.G 5 U.,Xo.4.J.>.5.5.5.6.J.6.6.6.G 6 T.<Xo.6.J.1.",
"p.p.p.p.x.x.x.&.c # 6XfX0.v.W.8.p.p.p.p.x.x.x.&.c # 6XfX0.v.W.8.p.p.p.p.x.x.x.&.c # 6XfX0.v.W.8.p.p.p.p.x.x.x.&.A # 0XfX0.b.W.8.",
"h.h.V.V.V.S.S.c.S $ eX#X$.$.a.#.h.h.V.V.V.S.S.c.S $ eX#X$.$.a.#.h.h.V.V.V.S.S.c.S $ eX#X$.$.a.#.h.h.V.V.V.S.S.c.S 7 eXdXu.$.a.#.",
"-.g.h.a.&. .| | Z % 4X@Xi.g.b.N.-.g.h.a.&. .| | Z % 4X@Xi.g.b.N.-.g.h.a.&. .| | Z % 4X@Xi.g.b.N.-.g.h.a.&. .| | Z 7 4XyXg.g.b.N.",
"qXiXaX7X^.N.Z.m.y 9 3XyX).OX}.uXqXiXaX7X^.N.Z.m.y 9 3XyX).OX}.uXqXiXaX7X^.N.Z.m.y 9 3XyX).OX}.uXqXiXaX7X^.N.Z.m.p 9 3XyX XOX8XaX",
"OX*XuX`.j.$.} q.o < W.OX|.@X).%XOX*XuX`.j.$.} q.o < W.OX|.@X).%XOX*XuX`.j.$.} q.o < W.OX|.@X).%XOX*XuX`.j.$.} q.O < Q.*X|.yX).%X",
"W c h e B { y ( p p M V a a a a W l j j N [ a l p p M V a a a a W l j j N [ a l p p M V a a a a W l j j N [ a l p p v a a a a V ",
"; ! 3 1 l g * - * ; : : = = = = l Q 3 1 ; g : - * ; : : = = = = l Q 3 1 ; g : - * ; : : = = = = l Q 3 1 ; g : - * ; : : = = = : ",
"L 0 E.<Xt.P.J.9.n.5.5.6.6.6.6.5.I 6 E.3Xe.J.I.4.n.5.5.6.6.6.6.5.I 6 E.3Xe.J.I.4.n.5.5.6.6.6.6.5.I 6 E.3Xe.J.I.4.5.5.5.5.6.6.6.6.",
"A 4 6XpXz.s.m.8.s.s.a.a.b.b.c.x.A & 0XfX0.s.F.9.s.s.a.a.b.b.c.x.A & 0XfX0.s.F.9.s.s.a.a.b.b.c.x.A & 0XfX0.s.F.9.d.p.a.a.b.S.b.c.",
"m $ 4X$Xu.$.p.;.$.$.%.%.*.*.&.&.m @ rX#X$.$.v.=.$.$.%.%.*.*.&.&.m @ rX#X$.$.v.=.$.$.%.%.*.*.&.&.m @ rX#X$.$.v.=.%.%.%.%.%.*.*.&.",
"S T jXyXl.k.V.^.k.C.C.V.c.x.r.r.S J jXdXl.k.G.D.k.C.C.V.c.x.r.r.S J jXdXl.k.G.D.k.C.C.V.c.x.r.r.S J jXdXl.k.G.D.j.B.C.V.c.c.x.v.",
"s 0 3X$X).+X].oX(.'.'._.7.*.&.x.p 9 3X#X).+X(.oX(.'.'._.7.*.&.x.p 9 3X#X).+X(.oX(.'.'._.7.*.&.x.p 9 3X#X).+X(.oXXXoX'._.7.-.*.c.",
"o / Q.OXsXdXXX-X*XpXpX8XB.a.p.r.O < Q.*X=XyXOX;X*XpXpX8XB.a.p.r.O < Q.*X=XyXOX;X*XpXpX8XB.a.p.r.O < Q.*X=XyXOX;X@XhXpX}.~.*.p.c."
};
