/* XPM */
static char *_e023b7f293a43f2e9fecdb5e6cb7c94NrBjASzv8U5BHT2H[] = {
/* columns rows colors chars-per-pixel */
"64 64 9 1 ",
"  c gray12",
". c #1B1B1B",
"X c #222222",
"o c gray15",
"O c #75BEF5",
"+ c #3D638D",
"@ c #2B4769",
"# c #244162",
"$ c #558EC8",
/* pixels */
"..o .o .oX.oX.Xo. o..o .oX.oX.Xo. o..o .oX.oX.Xo. o..o .oX.oX.Xo",
"  X  X  XX XX XX XX  X  XX XX XX XX  X  XX XX XX XX  X  XX XX XX",
"oX.Xo.Xo. o. o .oX.oX.Xo. o. o .oX.oX.Xo. o. o .oX.oX.Xo. o. o .",
". o .X .oX.XX.XX. o. o .oX.XX.XX. o. o .oX.XX.XX. o. o .oX.XX.Xo",
". X  X  XX.XX.XX. X  X  XX.XX.XX. X  X  XX.XX.XX. X  X  XX.XX.XX",
"oX.Xo.Xo. o. o .oX.oX.Xo. o. o .oX.oX.Xo. o. o .oX.oX.Xo. o. o .",
"  X  X                                                  XX XX XX",
". o .o X#@#@@#@@#@@##@##@@#@@#@@#@@##@##@@#@@#@@#@@##@##o .XX.Xo",
"oX.Xo.X#OOOOOOOOOOOOOOOOOOOOOOOOOOOOOOOOOOOOOOOOOOOOOOOO# o. o .",
"XX XX  @O$++++++++++++++++++++++++++++++++++++++++++++$O@ X  X  ",
"..o .o.#O+.XX.XX. o..o..o .XX.XX. o..o..o .XX.XX. o..X+O@ .oX.Xo",
"XX.XX. @O+X  X  XX.XX.XX. X  X  XX.XX.XX. X  X  XX.XX.+O# X  X .",
"XX.XX. @O+X  X  XX.XX.XX. X  X  XX.XX.XX. X  X  XX.XX.+O# X  X .",
"..o .o.#O+.oX.Xo. o. o .oX.oX.Xo. o. o .oX.oX.Xo. o. o+O@ .oX.Xo",
"XX XX  @O+   X  XX XX XX  X  X  XX XX XX  X  X  XX XX +O@ X  X  ",
"oX.Xo.X@O+X. o .oX.XX.Xo. o. o .oX.XX.Xo. o. o .oX.XX.+O# o. o .",
". o .o #O+.XX.Xo. o. o .oX.XX.Xo. o. o .oX.XX.Xo. o. o+O@ .XX.Xo",
"  X  X #O+ XX XX  X  X  XX XX XX  X  X  XX XX XX  X   +O@  XX XX",
"oX.Xo.X@O+o. o .oX.oX.Xo. o. o .oX.oX.Xo. o. o .oX.oX.+O# o. o .",
". X  X #O+.XX.XX. X  X  XX.XX.XX. X  X  XX.XX.XX. X  X+O@ .XX.XX",
". X  X #O+.XX.XX. X  X  XX.XX.XX. X  X  XX.XX.XX. X  X+O@ .XX.XX",
"oX.Xo.X@O+o. o .oX.oX.Xo. o. o .oX.oX.Xo. o. o .oX.oX.+O# o. o .",
"  X  X #O+ XX XX  X  X  XX XX XX  X  X  XX XX XX  X   +O@  XX XX",
". o .o #O+.XX.Xo. o. o .oX.XX.Xo. o. o .oX.XX.Xo. o. o+O@ .XX.Xo",
"oX.Xo.X@O+X. o .oX.XX.Xo. o. o .oX.XX.Xo. o. o .oX.XX.+O# o. o .",
"XX XX  @O+   X  XX XX XX  X  X  XX XX XX  X  X  XX XX +O@ X  X  ",
"..o .o.#O+.oX.Xo. o. o .oX.oX.Xo. o. o .oX.oX.Xo. o. o+O@ .oX.Xo",
"XX.XX. @O+X  X  XX.XX.XX. X  X  XX.XX.XX. X  X  XX.XX.+O# X  X .",
"XX.XX. @O+X  X  XX.XX.XX. X  X  XX.XX.XX. X  X  XX.XX.+O# X  X .",
"..o .o.#O+.oX.Xo. o. o .oX.oX.Xo. o. o .oX.oX.Xo. o. o+O@ .oX.Xo",
"XX XX  @O+   X  X  XX XX XX  X  X  XX XX XX  X  X  XX +O@ X  X  ",
"oX.Xo.X@O+o. o .oX.oX.Xo. o. o .oX.oX.Xo. o. o .oX.oX.+O# o. o .",
". o .o #O+.XX.XX. o. o .oX.XX.XX. o. o .oX.XX.XX. o. X+O@ .XX.Xo",
"  X  X #O+.XX XX  X  X  XX XX XX  X  X  XX XX XX  X  X+O@  XX XX",
"oX.Xo.X@O+o. o .oX.oX.Xo. o. o .oX.oX.Xo. o. o .oX.oX.+O# o. o .",
"  X  X #O+.XX XX  X  X  XX XX XX  X  X  XX XX XX  X  X+O@  XX XX",
". o .X #O+.XX.XX. o. o .oX.XX.XX. o. o .oX.XX.XX. o. X+O@ .XX.Xo",
"oX.Xo.X@O+o. o .oX.oX.Xo. o. o .oX.oX.Xo. o. o .oX.oX.+O# o. o .",
"  X  X @O+ XX XX XX  X  XX XX XX XX  X  XX XX XX XX   +O@  XX XX",
". o .o #O+.oX.Xo. o. o .oX.oX.Xo. o. o .oX.oX.Xo. o. o+O@ .oX.Xo",
"oX.XX. @O+X. o .oX.XX.XX. o. o .oX.XX.XX. o. o .oX.XX.+O# o. o .",
"XX XX  @O+   X  XX XX XX  X  X  XX XX XX  X  X  XX XX.+O# X  X  ",
"..o .o.#O+.oX.Xo. o. o .oX.oX.Xo. o. o .oX.oX.Xo. o. o+O@ .oX.Xo",
"XX XX  @O+X  X  XX XX XX  X  X  XX XX XX  X  X  XX XX.+O# X  X  ",
"XX.XX. @O+X. o .oX.XX.XX. o. o .oX.XX.XX. o. o .oX.XX.+O# o. o .",
"..o .o #O+.oX.Xo. o. o .oX.oX.Xo. o. o .oX.oX.Xo. o. o+O@ .oX.Xo",
"XX XX  @O+   X  X  XX XX XX  X  X  XX XX XX  X  X  XX +O@ X  X  ",
"oX.Xo.X@O+o. o .oX.oX.Xo. o. o .oX.oX.Xo. o. o .oX.oX.+O# o. o .",
". o .o #O+.XX.XX. o. o .oX.XX.XX. o. o .oX.XX.XX. o. X+O@ .XX.Xo",
"  X  X #O+.XX XX  X  X  XX XX XX  X  X  XX XX XX  X  X+O@  XX XX",
"oX.Xo.X@O+o. o .oX.oX.Xo. o. o .oX.oX.Xo. o. o .oX.oX.+O# o. o .",
"  X  X #O+.XX XX  X  X  XX XX XX  X  X  XX XX XX  X  X+O@  XX XX",
". o .X #O+.XX.XX. o. o .oX.XX.XX. o. o .oX.XX.XX. o. X+O@ .XX.Xo",
"oX.Xo.X@O+X..o..o .XX.XX. o..o..o .XX.XX. o..o..o .XX.+O# o. o .",
"  X  X @O$++++++++++++++++++++++++++++++++++++++++++++$O@  XX XX",
"..o .o #OOOOOOOOOOOOOOOOOOOOOOOOOOOOOOOOOOOOOOOOOOOOOOOO@ .oX.Xo",
"XX.XX.Xo#@@##@##@@#@@#@@#@@##@##@@#@@#@@#@@##@##@@#@@#@#X X  o .",
"XX.XX XX. X  X .X .X . X. X  X .X .X . X. X  X .X .X . X. X  X .",
"..o .o .oX.oX.Xo. o. o .oX.oX.Xo. o. o .oX.oX.Xo. o. o .oX.oX.Xo",
"XX XX XX  X  X  XX XX XX  X  X  XX XX XX  X  X  XX XX XX  X  X  ",
"oX.Xo.XX. o. o .oX.XX.XX. o. o .oX.XX.XX. o. o .oX.XX.XX. o. o .",
". o .o .oX.oX.Xo. o. o .oX.oX.Xo. o. o .oX.oX.Xo. o. o .oX.oX.Xo",
"  X  X  XX XX XX  X  X  XX XX XX  X  X  XX XX XX  X  X  XX XX XX",
"oX.Xo.Xo. o..o .oX.oX.Xo. o..o .oX.oX.Xo. o..o .oX.oX.Xo. o..o ."
};
